<mxfile host="Electron" modified="2023-05-30T14:03:04.502Z" agent="Mozilla/5.0 (Macintosh; Intel Mac OS X 10_15_7) AppleWebKit/537.36 (KHTML, like Gecko) draw.io/21.2.8 Chrome/112.0.5615.165 Electron/24.2.0 Safari/537.36" etag="wAJ852uehpkOK7rNGHE5" version="21.2.8" type="device">
  <diagram name="Page-1" id="Page-1">
    <mxGraphModel dx="5537" dy="3710" grid="1" gridSize="10" guides="1" tooltips="1" connect="1" arrows="1" fold="1" page="1" pageScale="1" pageWidth="850" pageHeight="1100" math="0" shadow="0">
      <root>
        <mxCell id="0" />
        <mxCell id="TOCDHdvm8-HeGQYIKiHr-162" value="Policies" style="" parent="0" />
        <mxCell id="ggG3lRJB8GXEoVEXRnXH-157" style="edgeStyle=elbowEdgeStyle;rounded=0;orthogonalLoop=1;jettySize=auto;html=1;fontSize=12;startSize=8;endSize=8;fontFamily=Helvetica;" parent="TOCDHdvm8-HeGQYIKiHr-162" source="TOCDHdvm8-HeGQYIKiHr-198" target="ggG3lRJB8GXEoVEXRnXH-156" edge="1">
          <mxGeometry relative="1" as="geometry">
            <Array as="points">
              <mxPoint x="-630" y="-379" />
              <mxPoint x="-610" y="-369" />
              <mxPoint x="-440.00000000000006" y="-439" />
              <mxPoint x="-360.00000000000006" y="-449" />
              <mxPoint x="-350.00000000000006" y="-449" />
              <mxPoint x="-560" y="-329" />
              <mxPoint x="-330.00000000000006" y="-499" />
              <mxPoint x="29.999999999999954" y="-459" />
            </Array>
            <mxPoint x="-620" y="-379" as="sourcePoint" />
          </mxGeometry>
        </mxCell>
        <UserObject label="&lt;div style=&quot;font-size: 12px;&quot;&gt;&lt;font style=&quot;font-size: 12px; color: rgb(0, 0, 0); direction: ltr; letter-spacing: 0px; line-height: 120%; opacity: 1;&quot;&gt;eGovernment Act of 2002&lt;br style=&quot;font-size: 12px;&quot;&gt;&lt;/font&gt;&lt;/div&gt;" tags="Flowchart" id="TOCDHdvm8-HeGQYIKiHr-198">
          <mxCell style="verticalAlign=middle;align=center;overflow=width;vsdxID=198;gradientDirection=north;shape=stencil(nZBLDoAgDERP0z3SIyjew0SURgSD+Lu9kMZoXLhwN9O+tukAlrNpJg1SzDH4QW/URgNYgZTkjA4UkwJUgGXng+6DX1zLfmoymdXo17xh5zmRJ6Q42BWCfc2oJfdAr+Yv+AP9Cb7OJ3H/2JG1HNGz/84klThPVCc=);shadow=0;spacingTop=-1;spacingBottom=-1;spacingLeft=-1;spacingRight=-1;points=[[1,0.5,0],[0.5,0.5,0],[0.5,0,0]];labelBackgroundColor=none;rounded=0;html=1;whiteSpace=wrap;fontSize=12;fontFamily=Helvetica;fillColor=#d5e8d4;strokeColor=#82b366;" parent="TOCDHdvm8-HeGQYIKiHr-162" vertex="1">
            <mxGeometry x="-384.80000000000007" y="-404.9" width="100" height="50" as="geometry" />
          </mxCell>
        </UserObject>
        <UserObject label="" tags="Connector" id="TOCDHdvm8-HeGQYIKiHr-235">
          <mxCell style="vsdxID=180;startArrow=none;endArrow=block;startSize=5;endSize=5;strokeColor=#595959;spacingTop=0;spacingBottom=0;spacingLeft=0;spacingRight=0;verticalAlign=middle;html=1;labelBackgroundColor=#ffffff;rounded=0;fontSize=12;fontFamily=Helvetica;" parent="TOCDHdvm8-HeGQYIKiHr-162" source="TOCDHdvm8-HeGQYIKiHr-182" target="TOCDHdvm8-HeGQYIKiHr-183" edge="1">
            <mxGeometry relative="1" as="geometry">
              <mxPoint as="offset" />
            </mxGeometry>
          </mxCell>
        </UserObject>
        <UserObject label="" tags="Connector" id="TOCDHdvm8-HeGQYIKiHr-236">
          <mxCell style="vsdxID=176;edgeStyle=none;startArrow=none;endArrow=block;startSize=5;endSize=5;strokeColor=#595959;spacingTop=0;spacingBottom=0;spacingLeft=0;spacingRight=0;verticalAlign=middle;html=1;labelBackgroundColor=#ffffff;rounded=0;exitX=0.52;exitY=1;exitDx=0;exitDy=0;exitPerimeter=0;entryX=0.5217391304347826;entryY=0.02127659574468085;entryDx=0;entryDy=0;entryPerimeter=0;" parent="TOCDHdvm8-HeGQYIKiHr-162" edge="1">
            <mxGeometry relative="1" as="geometry">
              <mxPoint x="584.52" y="-502" as="targetPoint" />
            </mxGeometry>
          </mxCell>
        </UserObject>
        <UserObject label="" tags="Connector" id="TOCDHdvm8-HeGQYIKiHr-242">
          <mxCell style="vsdxID=92;edgeStyle=none;startArrow=none;endArrow=block;startSize=5;endSize=5;spacingTop=0;spacingBottom=0;spacingLeft=0;spacingRight=0;verticalAlign=middle;html=1;labelBackgroundColor=#ffffff;rounded=0;shadow=0;fontSize=12;fontFamily=Helvetica;" parent="TOCDHdvm8-HeGQYIKiHr-162" source="TOCDHdvm8-HeGQYIKiHr-276" target="TOCDHdvm8-HeGQYIKiHr-282" edge="1">
            <mxGeometry relative="1" as="geometry">
              <mxPoint x="-4" as="offset" />
              <Array as="points" />
              <mxPoint x="-107.98000000000006" y="-1080.5" as="targetPoint" />
            </mxGeometry>
          </mxCell>
        </UserObject>
        <UserObject label="" tags="Connector" id="TOCDHdvm8-HeGQYIKiHr-244">
          <mxCell style="vsdxID=152;startArrow=none;endArrow=block;startSize=5;endSize=5;spacingTop=0;spacingBottom=0;spacingLeft=0;spacingRight=0;verticalAlign=middle;html=1;labelBackgroundColor=#ffffff;rounded=0;shadow=0;fontSize=12;fontFamily=Helvetica;entryX=1;entryY=0.5;entryDx=0;entryDy=0;entryPerimeter=0;" parent="TOCDHdvm8-HeGQYIKiHr-162" source="TOCDHdvm8-HeGQYIKiHr-171" target="TOCDHdvm8-HeGQYIKiHr-168" edge="1">
            <mxGeometry relative="1" as="geometry">
              <mxPoint x="-700" y="522.21" as="targetPoint" />
            </mxGeometry>
          </mxCell>
        </UserObject>
        <UserObject label="" tags="Connector" id="TOCDHdvm8-HeGQYIKiHr-245">
          <mxCell style="vsdxID=153;edgeStyle=elbowEdgeStyle;startArrow=none;endArrow=block;startSize=5;endSize=5;spacingTop=0;spacingBottom=0;spacingLeft=0;spacingRight=0;verticalAlign=middle;html=1;labelBackgroundColor=#ffffff;rounded=0;shadow=0;fontSize=12;fontFamily=Helvetica;exitX=-0.019;exitY=0.5;exitDx=0;exitDy=0;exitPerimeter=0;" parent="TOCDHdvm8-HeGQYIKiHr-162" source="TOCDHdvm8-HeGQYIKiHr-171" target="TOCDHdvm8-HeGQYIKiHr-170" edge="1">
            <mxGeometry relative="1" as="geometry">
              <Array as="points">
                <mxPoint x="-570" y="550" />
                <mxPoint x="-560" y="540" />
                <mxPoint x="-560" y="540" />
                <mxPoint x="-560" y="550" />
                <mxPoint x="-553.71" y="580" />
                <mxPoint x="-533.71" y="570" />
                <mxPoint x="-493.71000000000004" y="530" />
                <mxPoint x="-407.7100000000001" y="590" />
              </Array>
            </mxGeometry>
          </mxCell>
        </UserObject>
        <UserObject label="" tags="Connector" id="TOCDHdvm8-HeGQYIKiHr-246">
          <mxCell style="vsdxID=155;edgeStyle=elbowEdgeStyle;startArrow=none;endArrow=block;startSize=5;endSize=5;spacingTop=0;spacingBottom=0;spacingLeft=0;spacingRight=0;verticalAlign=middle;html=1;labelBackgroundColor=#ffffff;rounded=0;shadow=0;fontSize=12;fontFamily=Helvetica;entryX=1;entryY=0.5;entryDx=0;entryDy=0;entryPerimeter=0;exitX=0;exitY=0.5;exitDx=0;exitDy=0;exitPerimeter=0;" parent="TOCDHdvm8-HeGQYIKiHr-162" source="TOCDHdvm8-HeGQYIKiHr-171" target="TOCDHdvm8-HeGQYIKiHr-169" edge="1">
            <mxGeometry relative="1" as="geometry">
              <Array as="points">
                <mxPoint x="-570" y="520" />
                <mxPoint x="-553.71" y="560" />
                <mxPoint x="-533.71" y="550" />
                <mxPoint x="-563.71" y="550" />
                <mxPoint x="-563.71" y="550" />
                <mxPoint x="-407.7100000000001" y="620" />
              </Array>
            </mxGeometry>
          </mxCell>
        </UserObject>
        <UserObject label="" tags="Connector" id="TOCDHdvm8-HeGQYIKiHr-248">
          <mxCell style="vsdxID=168;edgeStyle=none;startArrow=none;endArrow=block;startSize=5;endSize=5;spacingTop=0;spacingBottom=0;spacingLeft=0;spacingRight=0;verticalAlign=middle;html=1;labelBackgroundColor=#ffffff;rounded=0;shadow=0;fontSize=12;fontFamily=Helvetica;exitX=0.004;exitY=0.892;exitDx=0;exitDy=0;exitPerimeter=0;" parent="TOCDHdvm8-HeGQYIKiHr-162" source="TOCDHdvm8-HeGQYIKiHr-191" edge="1" target="TOCDHdvm8-HeGQYIKiHr-302">
            <mxGeometry relative="1" as="geometry">
              <mxPoint x="-534.5" y="653.7800000000001" as="targetPoint" />
              <mxPoint x="-359.50000000000006" y="695.7800000000001" as="sourcePoint" />
            </mxGeometry>
          </mxCell>
        </UserObject>
        <UserObject label="" tags="Connector" id="TOCDHdvm8-HeGQYIKiHr-250">
          <mxCell style="vsdxID=170;edgeStyle=none;startArrow=none;endArrow=block;startSize=5;endSize=5;spacingTop=0;spacingBottom=0;spacingLeft=0;spacingRight=0;verticalAlign=middle;html=1;labelBackgroundColor=#ffffff;rounded=0;shadow=0;fontSize=12;fontFamily=Helvetica;exitX=0.004;exitY=0.18;exitDx=0;exitDy=0;exitPerimeter=0;" parent="TOCDHdvm8-HeGQYIKiHr-162" source="TOCDHdvm8-HeGQYIKiHr-191" target="TOCDHdvm8-HeGQYIKiHr-188" edge="1">
            <mxGeometry relative="1" as="geometry">
              <mxPoint x="-1" as="offset" />
              <Array as="points" />
              <mxPoint x="-359.50000000000006" y="628.7800000000001" as="sourcePoint" />
            </mxGeometry>
          </mxCell>
        </UserObject>
        <UserObject label="" tags="Flowchart" id="TOCDHdvm8-HeGQYIKiHr-251">
          <mxCell style="fontSize=12;fontFamily=Helvetica;" parent="TOCDHdvm8-HeGQYIKiHr-162" vertex="1">
            <mxGeometry x="-498.00000000000006" y="-789" as="geometry" />
          </mxCell>
        </UserObject>
        <mxCell id="ggG3lRJB8GXEoVEXRnXH-113" style="edgeStyle=orthogonalEdgeStyle;rounded=0;orthogonalLoop=1;jettySize=auto;html=1;fontSize=12;fontFamily=Helvetica;" parent="TOCDHdvm8-HeGQYIKiHr-162" source="TOCDHdvm8-HeGQYIKiHr-277" target="ggG3lRJB8GXEoVEXRnXH-111" edge="1">
          <mxGeometry relative="1" as="geometry" />
        </mxCell>
        <UserObject label="&lt;div style=&quot;font-size: 12px;&quot;&gt;&lt;font style=&quot;font-size: 12px; color: rgb(0, 0, 0); direction: ltr; letter-spacing: 0px; line-height: 120%; opacity: 1;&quot;&gt;OMB Circular A-130&lt;br style=&quot;font-size: 12px;&quot;&gt;&lt;/font&gt;&lt;/div&gt;" tags="Flowchart" id="TOCDHdvm8-HeGQYIKiHr-277">
          <mxCell style="verticalAlign=middle;align=center;overflow=width;vsdxID=2;gradientDirection=north;shape=stencil(nZBLDoAgDERP0z3SIyjew0SURgSD+Lu9kMZoXLhwN9O+tukAlrNpJg1SzDH4QW/URgNYgZTkjA4UkwJUgGXng+6DX1zLfmoymdXo17xh5zmRJ6Q42BWCfc2oJfdAr+Yv+AP9Cb7OJ3H/2JG1HNGz/84klThPVCc=);shadow=0;spacingTop=-1;spacingBottom=-1;spacingLeft=-1;spacingRight=-1;points=[[1,0.5,0],[0.5,0.5,0],[0.5,0,0]];labelBackgroundColor=none;rounded=0;html=1;whiteSpace=wrap;fontSize=12;fontFamily=Helvetica;fillColor=#dae8fc;strokeColor=#6c8ebf;" parent="TOCDHdvm8-HeGQYIKiHr-162" vertex="1">
            <mxGeometry x="-238.86000000000007" y="155" width="80" height="50" as="geometry" />
          </mxCell>
        </UserObject>
        <mxCell id="Nrz4EeOHtD00HPhqAW5B-131" style="edgeStyle=orthogonalEdgeStyle;rounded=0;orthogonalLoop=1;jettySize=auto;html=1;entryX=1.008;entryY=0.446;entryDx=0;entryDy=0;entryPerimeter=0;" edge="1" parent="TOCDHdvm8-HeGQYIKiHr-162" source="TOCDHdvm8-HeGQYIKiHr-280" target="ggG3lRJB8GXEoVEXRnXH-135">
          <mxGeometry relative="1" as="geometry">
            <Array as="points">
              <mxPoint x="-100" y="10" />
              <mxPoint x="-330" y="10" />
            </Array>
          </mxGeometry>
        </mxCell>
        <UserObject label="&lt;div style=&quot;font-size: 12px;&quot;&gt;&lt;font style=&quot;font-size: 12px; color: rgb(0, 0, 0); direction: ltr; letter-spacing: 0px; line-height: 120%; opacity: 1;&quot;&gt;M-19-17&lt;br style=&quot;font-size: 12px;&quot;&gt;&lt;/font&gt;&lt;/div&gt;" tags="Flowchart" id="TOCDHdvm8-HeGQYIKiHr-280">
          <mxCell style="verticalAlign=middle;align=center;overflow=width;vsdxID=12;gradientDirection=north;shape=stencil(nZBLDoAgDERP0z3SIyjew0SURgSD+Lu9kMZoXLhwN9O+tukAlrNpJg1SzDH4QW/URgNYgZTkjA4UkwJUgGXng+6DX1zLfmoymdXo17xh5zmRJ6Q42BWCfc2oJfdAr+Yv+AP9Cb7OJ3H/2JG1HNGz/84klThPVCc=);shadow=0;spacingTop=-1;spacingBottom=-1;spacingLeft=-1;spacingRight=-1;points=[[1,0.5,0],[0.5,0.5,0],[0.5,0,0]];labelBackgroundColor=none;rounded=0;html=1;whiteSpace=wrap;fontSize=12;fontFamily=Helvetica;fillColor=#dae8fc;strokeColor=#6c8ebf;" parent="TOCDHdvm8-HeGQYIKiHr-162" vertex="1">
            <mxGeometry x="-119.19000000000005" y="-329" width="60" height="30" as="geometry" />
          </mxCell>
        </UserObject>
        <mxCell id="ggG3lRJB8GXEoVEXRnXH-107" style="rounded=0;orthogonalLoop=1;jettySize=auto;html=1;fontSize=12;fontFamily=Helvetica;exitX=0.001;exitY=0.483;exitDx=0;exitDy=0;exitPerimeter=0;" parent="TOCDHdvm8-HeGQYIKiHr-162" source="TOCDHdvm8-HeGQYIKiHr-282" edge="1">
          <mxGeometry relative="1" as="geometry">
            <mxPoint x="-351" y="-551" as="targetPoint" />
          </mxGeometry>
        </mxCell>
        <UserObject label="&lt;div style=&quot;font-size: 12px;&quot;&gt;&lt;font style=&quot;font-size: 12px; color: rgb(0, 0, 0); direction: ltr; letter-spacing: 0px; line-height: 120%; opacity: 1;&quot;&gt;M-05-24&lt;br style=&quot;font-size: 12px;&quot;&gt;&lt;/font&gt;&lt;/div&gt;" tags="Flowchart" id="TOCDHdvm8-HeGQYIKiHr-282">
          <mxCell style="verticalAlign=middle;align=center;overflow=width;vsdxID=66;gradientDirection=north;shape=stencil(nZBLDoAgDERP0z3SIyjew0SURgSD+Lu9kMZoXLhwN9O+tukAlrNpJg1SzDH4QW/URgNYgZTkjA4UkwJUgGXng+6DX1zLfmoymdXo17xh5zmRJ6Q42BWCfc2oJfdAr+Yv+AP9Cb7OJ3H/2JG1HNGz/84klThPVCc=);shadow=0;spacingTop=-1;spacingBottom=-1;spacingLeft=-1;spacingRight=-1;points=[[1,0.5,0],[0.5,0.5,0],[0.5,0,0]];labelBackgroundColor=none;rounded=0;html=1;whiteSpace=wrap;fontSize=12;fontFamily=Helvetica;fillColor=#dae8fc;strokeColor=#6c8ebf;" parent="TOCDHdvm8-HeGQYIKiHr-162" vertex="1">
            <mxGeometry x="-315.64" y="-565" width="64.84" height="30" as="geometry" />
          </mxCell>
        </UserObject>
        <UserObject label="" tags="Connector" id="TOCDHdvm8-HeGQYIKiHr-293">
          <mxCell style="vsdxID=74;edgeStyle=none;startArrow=none;endArrow=block;startSize=5;endSize=5;spacingTop=0;spacingBottom=0;spacingLeft=0;spacingRight=0;verticalAlign=middle;html=1;labelBackgroundColor=#ffffff;rounded=0;exitX=0.49295774647887325;exitY=1.02;exitDx=0;exitDy=0;exitPerimeter=0;entryX=0.5;entryY=0;entryDx=0;entryDy=0;entryPerimeter=0;shadow=0;" parent="TOCDHdvm8-HeGQYIKiHr-162" edge="1">
            <mxGeometry relative="1" as="geometry">
              <mxPoint x="12" as="offset" />
              <Array as="points" />
              <mxPoint x="490" y="-830" as="targetPoint" />
            </mxGeometry>
          </mxCell>
        </UserObject>
        <UserObject label="&lt;div style=&quot;font-size: 12px;&quot;&gt;&lt;font style=&quot;font-size: 12px; color: rgb(0, 0, 0); direction: ltr; letter-spacing: 0px; line-height: 120%; opacity: 1;&quot;&gt;E.O. 13526&lt;br style=&quot;font-size: 12px;&quot;&gt;&lt;/font&gt;&lt;/div&gt;" tags="Flowchart" id="TOCDHdvm8-HeGQYIKiHr-188">
          <mxCell style="verticalAlign=middle;align=center;overflow=width;vsdxID=164;gradientDirection=north;shape=stencil(nZBLDoAgDERP0z3SIyjew0SURgSD+Lu9kMZoXLhwN9O+tukAlrNpJg1SzDH4QW/URgNYgZTkjA4UkwJUgGXng+6DX1zLfmoymdXo17xh5zmRJ6Q42BWCfc2oJfdAr+Yv+AP9Cb7OJ3H/2JG1HNGz/84klThPVCc=);shadow=0;spacingTop=-1;spacingBottom=-1;spacingLeft=-1;spacingRight=-1;points=[[1,0.5,0],[0.5,0.5,0],[0.5,0,0]];labelBackgroundColor=none;rounded=0;html=1;whiteSpace=wrap;fontSize=12;fontFamily=Helvetica;fillColor=#d5e8d4;strokeColor=#82b366;" parent="TOCDHdvm8-HeGQYIKiHr-162" vertex="1">
            <mxGeometry x="-481.00000000000006" y="600.0000000000001" width="50" height="34.39" as="geometry" />
          </mxCell>
        </UserObject>
        <mxCell id="Nrz4EeOHtD00HPhqAW5B-141" style="edgeStyle=orthogonalEdgeStyle;rounded=0;orthogonalLoop=1;jettySize=auto;html=1;" edge="1" parent="TOCDHdvm8-HeGQYIKiHr-162" source="TOCDHdvm8-HeGQYIKiHr-189" target="TOCDHdvm8-HeGQYIKiHr-192">
          <mxGeometry relative="1" as="geometry">
            <Array as="points">
              <mxPoint x="-490" y="660" />
              <mxPoint x="-490" y="660" />
            </Array>
          </mxGeometry>
        </mxCell>
        <UserObject label="&lt;div style=&quot;font-size: 12px;&quot;&gt;&lt;font style=&quot;font-size: 12px; color: rgb(0, 0, 0); direction: ltr; letter-spacing: 0px; line-height: 120%; opacity: 1;&quot;&gt;E.O. 13587&lt;br style=&quot;font-size: 12px;&quot;&gt;&lt;/font&gt;&lt;/div&gt;" tags="Flowchart" id="TOCDHdvm8-HeGQYIKiHr-189">
          <mxCell style="verticalAlign=middle;align=center;overflow=width;vsdxID=165;gradientDirection=north;shape=stencil(nZBLDoAgDERP0z3SIyjew0SURgSD+Lu9kMZoXLhwN9O+tukAlrNpJg1SzDH4QW/URgNYgZTkjA4UkwJUgGXng+6DX1zLfmoymdXo17xh5zmRJ6Q42BWCfc2oJfdAr+Yv+AP9Cb7OJ3H/2JG1HNGz/84klThPVCc=);shadow=0;spacingTop=-1;spacingBottom=-1;spacingLeft=-1;spacingRight=-1;points=[[1,0.5,0],[0.5,0.5,0],[0.5,0,0]];labelBackgroundColor=none;rounded=0;html=1;whiteSpace=wrap;fontSize=12;fontFamily=Helvetica;fillColor=#d5e8d4;strokeColor=#82b366;" parent="TOCDHdvm8-HeGQYIKiHr-162" vertex="1">
            <mxGeometry x="-481.00000000000006" y="634.3900000000001" width="50" height="34.39" as="geometry" />
          </mxCell>
        </UserObject>
        <UserObject label="&lt;div style=&quot;font-size: 12px;&quot;&gt;&lt;font style=&quot;font-size: 12px; color: rgb(0, 0, 0); direction: ltr; letter-spacing: 0px; line-height: 120%; opacity: 1;&quot;&gt;Intelligence Reform&amp;nbsp;&lt;/font&gt;&lt;/div&gt;&lt;div style=&quot;font-size: 12px;&quot;&gt;&lt;font style=&quot;font-size: 12px; color: rgb(0, 0, 0); direction: ltr; letter-spacing: 0px; line-height: 120%; opacity: 1;&quot;&gt;and Terrorism Prevention&amp;nbsp;&lt;/font&gt;&lt;/div&gt;&lt;div style=&quot;font-size: 12px;&quot;&gt;&lt;font style=&quot;font-size: 12px; color: rgb(0, 0, 0); direction: ltr; letter-spacing: 0px; line-height: 120%; opacity: 1;&quot;&gt;Act of 2004&lt;br style=&quot;font-size: 12px;&quot;&gt;&lt;/font&gt;&lt;/div&gt;" tags="Flowchart" id="TOCDHdvm8-HeGQYIKiHr-191">
          <mxCell style="verticalAlign=middle;align=center;overflow=width;vsdxID=167;gradientDirection=north;shape=stencil(nZBLDoAgDERP0z3SIyjew0SURgSD+Lu9kMZoXLhwN9O+tukAlrNpJg1SzDH4QW/URgNYgZTkjA4UkwJUgGXng+6DX1zLfmoymdXo17xh5zmRJ6Q42BWCfc2oJfdAr+Yv+AP9Cb7OJ3H/2JG1HNGz/84klThPVCc=);shadow=0;spacingTop=-1;spacingBottom=-1;spacingLeft=-1;spacingRight=-1;points=[[1,0.5,0],[0.5,0.5,0],[0.5,0,0]];labelBackgroundColor=none;rounded=0;html=1;whiteSpace=wrap;fontSize=12;fontFamily=Helvetica;fillColor=#d5e8d4;strokeColor=#82b366;" parent="TOCDHdvm8-HeGQYIKiHr-162" vertex="1">
            <mxGeometry x="-394" y="600.0000000000001" width="120" height="100" as="geometry" />
          </mxCell>
        </UserObject>
        <mxCell id="TOCDHdvm8-HeGQYIKiHr-334" style="edgeStyle=elbowEdgeStyle;rounded=0;orthogonalLoop=1;jettySize=auto;html=1;exitX=0.012;exitY=0.553;exitDx=0;exitDy=0;exitPerimeter=0;entryX=1;entryY=0.5;entryDx=0;entryDy=0;fontSize=12;fontFamily=Helvetica;" parent="TOCDHdvm8-HeGQYIKiHr-162" source="TOCDHdvm8-HeGQYIKiHr-192" target="TOCDHdvm8-HeGQYIKiHr-311" edge="1">
          <mxGeometry relative="1" as="geometry" />
        </mxCell>
        <UserObject label="&lt;div style=&quot;font-size: 12px;&quot;&gt;&lt;font style=&quot;font-size: 12px; color: rgb(0, 0, 0); direction: ltr; letter-spacing: 0px; line-height: 120%; opacity: 1;&quot;&gt;National Insider Threat Policy&lt;br style=&quot;font-size: 12px;&quot;&gt;&lt;/font&gt;&lt;/div&gt;" tags="Flowchart" id="TOCDHdvm8-HeGQYIKiHr-192">
          <mxCell style="verticalAlign=middle;align=center;overflow=width;vsdxID=202;gradientDirection=north;shape=stencil(nZBLDoAgDERP0z3SIyjew0SURgSD+Lu9kMZoXLhwN9O+tukAlrNpJg1SzDH4QW/URgNYgZTkjA4UkwJUgGXng+6DX1zLfmoymdXo17xh5zmRJ6Q42BWCfc2oJfdAr+Yv+AP9Cb7OJ3H/2JG1HNGz/84klThPVCc=);shadow=0;spacingTop=-1;spacingBottom=-1;spacingLeft=-1;spacingRight=-1;points=[[1,0.5,0],[0.5,0.5,0],[0.5,0,0]];labelBackgroundColor=none;rounded=0;html=1;whiteSpace=wrap;fontSize=12;fontFamily=Helvetica;fillColor=#d5e8d4;strokeColor=#82b366;" parent="TOCDHdvm8-HeGQYIKiHr-162" vertex="1">
            <mxGeometry x="-658.25" y="649.1700000000001" width="132.25" height="44.88" as="geometry" />
          </mxCell>
        </UserObject>
        <mxCell id="Nrz4EeOHtD00HPhqAW5B-134" style="edgeStyle=orthogonalEdgeStyle;rounded=0;orthogonalLoop=1;jettySize=auto;html=1;entryX=1;entryY=0.5;entryDx=0;entryDy=0;entryPerimeter=0;" edge="1" parent="TOCDHdvm8-HeGQYIKiHr-162" source="TOCDHdvm8-HeGQYIKiHr-276" target="TOCDHdvm8-HeGQYIKiHr-264">
          <mxGeometry relative="1" as="geometry">
            <Array as="points">
              <mxPoint x="-340" y="-600" />
              <mxPoint x="-340" y="-600" />
            </Array>
          </mxGeometry>
        </mxCell>
        <mxCell id="Nrz4EeOHtD00HPhqAW5B-149" style="edgeStyle=orthogonalEdgeStyle;rounded=0;orthogonalLoop=1;jettySize=auto;html=1;exitX=1;exitY=0.5;exitDx=0;exitDy=0;exitPerimeter=0;" edge="1" parent="TOCDHdvm8-HeGQYIKiHr-162" source="TOCDHdvm8-HeGQYIKiHr-276" target="TOCDHdvm8-HeGQYIKiHr-280">
          <mxGeometry relative="1" as="geometry">
            <Array as="points">
              <mxPoint x="-100" y="-600" />
            </Array>
          </mxGeometry>
        </mxCell>
        <mxCell id="Nrz4EeOHtD00HPhqAW5B-159" style="edgeStyle=orthogonalEdgeStyle;rounded=0;orthogonalLoop=1;jettySize=auto;html=1;" edge="1" parent="TOCDHdvm8-HeGQYIKiHr-162" source="TOCDHdvm8-HeGQYIKiHr-276" target="Nrz4EeOHtD00HPhqAW5B-152">
          <mxGeometry relative="1" as="geometry" />
        </mxCell>
        <UserObject label="&lt;div style=&quot;font-size: 12px;&quot;&gt;&lt;font style=&quot;font-size: 12px; color: rgb(0, 0, 0); direction: ltr; letter-spacing: 0px; line-height: 120%; opacity: 1;&quot;&gt;HSPD-12&lt;br style=&quot;font-size: 12px;&quot;&gt;&lt;/font&gt;&lt;/div&gt;" tags="Flowchart" id="TOCDHdvm8-HeGQYIKiHr-276">
          <mxCell style="verticalAlign=middle;align=center;overflow=width;vsdxID=1;gradientDirection=north;shape=stencil(nZBLDoAgDERP0z3SIyjew0SURgSD+Lu9kMZoXLhwN9O+tukAlrNpJg1SzDH4QW/URgNYgZTkjA4UkwJUgGXng+6DX1zLfmoymdXo17xh5zmRJ6Q42BWCfc2oJfdAr+Yv+AP9Cb7OJ3H/2JG1HNGz/84klThPVCc=);shadow=0;spacingTop=-1;spacingBottom=-1;spacingLeft=-1;spacingRight=-1;points=[[1,0.5,0],[0.5,0.5,0],[0.5,0,0]];labelBackgroundColor=none;rounded=0;html=1;whiteSpace=wrap;fontSize=12;fontFamily=Helvetica;fillColor=#d5e8d4;strokeColor=#82b366;" parent="TOCDHdvm8-HeGQYIKiHr-162" vertex="1">
            <mxGeometry x="-315.64" y="-615" width="64.84" height="30" as="geometry" />
          </mxCell>
        </UserObject>
        <mxCell id="Nrz4EeOHtD00HPhqAW5B-139" style="edgeStyle=orthogonalEdgeStyle;rounded=0;orthogonalLoop=1;jettySize=auto;html=1;" edge="1" parent="TOCDHdvm8-HeGQYIKiHr-162" source="TOCDHdvm8-HeGQYIKiHr-302" target="TOCDHdvm8-HeGQYIKiHr-192">
          <mxGeometry relative="1" as="geometry">
            <Array as="points">
              <mxPoint x="-510" y="680" />
              <mxPoint x="-510" y="680" />
            </Array>
          </mxGeometry>
        </mxCell>
        <UserObject label="&lt;div style=&quot;font-size: 12px;&quot;&gt;&lt;font style=&quot;font-size: 12px; color: rgb(0, 0, 0); direction: ltr; letter-spacing: 0px; line-height: 120%; opacity: 1;&quot;&gt;E.O. 12968&lt;br style=&quot;font-size: 12px;&quot;&gt;&lt;/font&gt;&lt;/div&gt;" tags="Flowchart" id="TOCDHdvm8-HeGQYIKiHr-302">
          <mxCell style="verticalAlign=middle;align=center;overflow=width;vsdxID=165;gradientDirection=north;shape=stencil(nZBLDoAgDERP0z3SIyjew0SURgSD+Lu9kMZoXLhwN9O+tukAlrNpJg1SzDH4QW/URgNYgZTkjA4UkwJUgGXng+6DX1zLfmoymdXo17xh5zmRJ6Q42BWCfc2oJfdAr+Yv+AP9Cb7OJ3H/2JG1HNGz/84klThPVCc=);shadow=0;spacingTop=-1;spacingBottom=-1;spacingLeft=-1;spacingRight=-1;points=[[1,0.5,0],[0.5,0.5,0],[0.5,0,0]];labelBackgroundColor=none;rounded=0;html=1;whiteSpace=wrap;fontSize=12;fontFamily=Helvetica;fillColor=#d5e8d4;strokeColor=#82b366;" parent="TOCDHdvm8-HeGQYIKiHr-162" vertex="1">
            <mxGeometry x="-481.00000000000006" y="668.7800000000001" width="50" height="40" as="geometry" />
          </mxCell>
        </UserObject>
        <UserObject label="" tags="Flowchart" id="TOCDHdvm8-HeGQYIKiHr-305">
          <mxCell style="rounded=0;orthogonalLoop=1;jettySize=auto;html=1;shadow=0;fontSize=12;fontFamily=Helvetica;entryX=1;entryY=0.5;entryDx=0;entryDy=0;entryPerimeter=0;" parent="TOCDHdvm8-HeGQYIKiHr-162" source="TOCDHdvm8-HeGQYIKiHr-303" target="TOCDHdvm8-HeGQYIKiHr-191" edge="1">
            <mxGeometry relative="1" as="geometry">
              <mxPoint x="-610.69" y="583.0000000000001" as="targetPoint" />
            </mxGeometry>
          </mxCell>
        </UserObject>
        <UserObject label="&lt;div style=&quot;font-size: 12px;&quot;&gt;&lt;font style=&quot;font-size: 12px; color: rgb(0, 0, 0); direction: ltr; letter-spacing: 0px; line-height: 120%; opacity: 1;&quot;&gt;E.O. 13356/&lt;/font&gt;&lt;span style=&quot;letter-spacing: 0px; background-color: initial;&quot;&gt;13388&lt;/span&gt;&lt;/div&gt;" tags="Flowchart" id="TOCDHdvm8-HeGQYIKiHr-303">
          <mxCell style="verticalAlign=middle;align=center;overflow=width;vsdxID=165;gradientDirection=north;shape=stencil(nZBLDoAgDERP0z3SIyjew0SURgSD+Lu9kMZoXLhwN9O+tukAlrNpJg1SzDH4QW/URgNYgZTkjA4UkwJUgGXng+6DX1zLfmoymdXo17xh5zmRJ6Q42BWCfc2oJfdAr+Yv+AP9Cb7OJ3H/2JG1HNGz/84klThPVCc=);shadow=0;spacingTop=-1;spacingBottom=-1;spacingLeft=-1;spacingRight=-1;points=[[1,0.5,0],[0.5,0.5,0],[0.5,0,0]];labelBackgroundColor=none;rounded=0;html=1;whiteSpace=wrap;fontSize=12;fontFamily=Helvetica;fillColor=#d5e8d4;strokeColor=#82b366;" parent="TOCDHdvm8-HeGQYIKiHr-162" vertex="1">
            <mxGeometry x="-238.39000000000016" y="630.0000000000001" width="120" height="40" as="geometry" />
          </mxCell>
        </UserObject>
        <UserObject label="&lt;div style=&quot;font-size: 12px;&quot;&gt;&lt;font style=&quot;font-size: 12px; color: rgb(0, 0, 0); direction: ltr; letter-spacing: 0px; line-height: 120%; opacity: 1;&quot;&gt;FISMA 2014&lt;br style=&quot;font-size: 12px;&quot;&gt;&lt;/font&gt;&lt;/div&gt;" tags="Flowchart" id="TOCDHdvm8-HeGQYIKiHr-186">
          <mxCell style="verticalAlign=middle;align=center;overflow=width;vsdxID=94;gradientDirection=north;shape=stencil(nZBLDoAgDERP0z3SIyjew0SURgSD+Lu9kMZoXLhwN9O+tukAlrNpJg1SzDH4QW/URgNYgZTkjA4UkwJUgGXng+6DX1zLfmoymdXo17xh5zmRJ6Q42BWCfc2oJfdAr+Yv+AP9Cb7OJ3H/2JG1HNGz/84klThPVCc=);shadow=0;spacingTop=-1;spacingBottom=-1;spacingLeft=-1;spacingRight=-1;points=[[1,0.5,0],[0.5,0.5,0],[0.5,0,0]];labelBackgroundColor=none;rounded=0;html=1;whiteSpace=wrap;fontSize=12;fontFamily=Helvetica;fillColor=#d5e8d4;strokeColor=#82b366;" parent="TOCDHdvm8-HeGQYIKiHr-162" vertex="1">
            <mxGeometry x="-211.63" y="-640" width="75.64" height="30" as="geometry" />
          </mxCell>
        </UserObject>
        <mxCell id="TOCDHdvm8-HeGQYIKiHr-182" value="&lt;div style=&quot;font-size: 12px;&quot;&gt;&lt;font style=&quot;font-size: 12px; color: rgb(0, 0, 0); direction: ltr; letter-spacing: 0px; line-height: 120%; opacity: 1;&quot;&gt;M-15-13&lt;br style=&quot;font-size: 12px;&quot;&gt;&lt;/font&gt;&lt;/div&gt;" style="verticalAlign=middle;align=center;overflow=width;vsdxID=142;gradientDirection=north;shape=stencil(nZBLDoAgDERP0z3SIyjew0SURgSD+Lu9kMZoXLhwN9O+tukAlrNpJg1SzDH4QW/URgNYgZTkjA4UkwJUgGXng+6DX1zLfmoymdXo17xh5zmRJ6Q42BWCfc2oJfdAr+Yv+AP9Cb7OJ3H/2JG1HNGz/84klThPVCc=);shadow=0;spacingTop=-1;spacingBottom=-1;spacingLeft=-1;spacingRight=-1;points=[[1,0.5,0],[0.5,0.5,0],[0.5,0,0]];labelBackgroundColor=none;rounded=0;html=1;whiteSpace=wrap;fontSize=12;fontFamily=Helvetica;fillColor=#dae8fc;strokeColor=#6c8ebf;" parent="TOCDHdvm8-HeGQYIKiHr-162" vertex="1">
          <mxGeometry x="-427.2200000000001" y="165" width="60" height="30" as="geometry" />
        </mxCell>
        <mxCell id="TOCDHdvm8-HeGQYIKiHr-183" value="&lt;div style=&quot;font-size: 12px;&quot;&gt;&lt;font style=&quot;font-size: 12px; color: rgb(0, 0, 0); direction: ltr; letter-spacing: 0px; line-height: 120%; opacity: 1;&quot;&gt;Public Trust PKI&lt;br style=&quot;font-size: 12px;&quot;&gt;&lt;/font&gt;&lt;/div&gt;" style="verticalAlign=middle;align=center;overflow=width;vsdxID=143;shape=stencil(nZBLDoAgDERP0z3SIyjew0SURgSD+Lu9kMZoXLhwN9O+tukAlrNpJg1SzDH4QW/URgNYgZTkjA4UkwJUgGXng+6DX1zLfmoymdXo17xh5zmRJ6Q42BWCfc2oJfdAr+Yv+AP9Cb7OJ3H/2JG1HNGz/84klThPVCc=);shadow=0;spacingTop=-1;spacingBottom=-1;spacingLeft=-1;spacingRight=-1;points=[[1,0.5,0],[0.5,0.5,0],[0.5,0,0]];labelBackgroundColor=none;rounded=0;html=1;whiteSpace=wrap;fontSize=12;fontFamily=Helvetica;fillColor=#ffe6cc;strokeColor=#d79b00;" parent="TOCDHdvm8-HeGQYIKiHr-162" vertex="1">
          <mxGeometry x="-552.43" y="150" width="59" height="60" as="geometry" />
        </mxCell>
        <mxCell id="ggG3lRJB8GXEoVEXRnXH-141" style="edgeStyle=none;curved=1;rounded=0;orthogonalLoop=1;jettySize=auto;html=1;fontSize=12;startSize=8;endSize=8;fontFamily=Helvetica;" parent="TOCDHdvm8-HeGQYIKiHr-162" edge="1">
          <mxGeometry relative="1" as="geometry">
            <mxPoint x="-680" y="-630" as="sourcePoint" />
            <mxPoint x="-650" y="-630" as="targetPoint" />
          </mxGeometry>
        </mxCell>
        <mxCell id="TOCDHdvm8-HeGQYIKiHr-320" value="Department of Commerce" style="swimlane;horizontal=0;whiteSpace=wrap;html=1;startSize=38;fontSize=12;fontFamily=Helvetica;" parent="TOCDHdvm8-HeGQYIKiHr-162" vertex="1">
          <mxGeometry x="-840" y="-685" width="160" height="120" as="geometry" />
        </mxCell>
        <mxCell id="TOCDHdvm8-HeGQYIKiHr-321" value="National Institute of Standards and Technology (NIST)" style="rounded=0;whiteSpace=wrap;html=1;fontSize=12;fontFamily=Helvetica;fillColor=#e1d5e7;strokeColor=#9673a6;" parent="TOCDHdvm8-HeGQYIKiHr-320" vertex="1">
          <mxGeometry x="48.73" y="20" width="89" height="80" as="geometry" />
        </mxCell>
        <mxCell id="TOCDHdvm8-HeGQYIKiHr-169" value="&lt;div style=&quot;font-size: 12px;&quot;&gt;&lt;font style=&quot;font-size: 12px; color: rgb(0, 0, 0); direction: ltr; letter-spacing: 0px; line-height: 120%; opacity: 1;&quot;&gt;E.O. 13284&lt;br style=&quot;font-size: 12px;&quot;&gt;&lt;/font&gt;&lt;/div&gt;" style="verticalAlign=middle;align=center;overflow=width;vsdxID=148;gradientDirection=north;shape=stencil(nZBLDoAgDERP0z3SIyjew0SURgSD+Lu9kMZoXLhwN9O+tukAlrNpJg1SzDH4QW/URgNYgZTkjA4UkwJUgGXng+6DX1zLfmoymdXo17xh5zmRJ6Q42BWCfc2oJfdAr+Yv+AP9Cb7OJ3H/2JG1HNGz/84klThPVCc=);shadow=0;spacingTop=-1;spacingBottom=-1;spacingLeft=-1;spacingRight=-1;points=[[1,0.5,0],[0.5,0.5,0],[0.5,0,0]];labelBackgroundColor=none;rounded=0;html=1;whiteSpace=wrap;fontSize=12;fontFamily=Helvetica;fillColor=#d5e8d4;strokeColor=#82b366;" parent="TOCDHdvm8-HeGQYIKiHr-162" vertex="1">
          <mxGeometry x="-650" y="490" width="50" height="30" as="geometry" />
        </mxCell>
        <mxCell id="TOCDHdvm8-HeGQYIKiHr-170" value="&lt;div style=&quot;font-size: 12px;&quot;&gt;&lt;font style=&quot;font-size: 12px; color: rgb(0, 0, 0); direction: ltr; letter-spacing: 0px; line-height: 120%; opacity: 1;&quot;&gt;E.O. 13231&lt;br style=&quot;font-size: 12px;&quot;&gt;&lt;/font&gt;&lt;/div&gt;" style="verticalAlign=middle;align=center;overflow=width;vsdxID=149;gradientDirection=north;shape=stencil(nZBLDoAgDERP0z3SIyjew0SURgSD+Lu9kMZoXLhwN9O+tukAlrNpJg1SzDH4QW/URgNYgZTkjA4UkwJUgGXng+6DX1zLfmoymdXo17xh5zmRJ6Q42BWCfc2oJfdAr+Yv+AP9Cb7OJ3H/2JG1HNGz/84klThPVCc=);shadow=0;spacingTop=-1;spacingBottom=-1;spacingLeft=-1;spacingRight=-1;points=[[1,0.5,0],[0.5,0.5,0],[0.5,0,0]];labelBackgroundColor=none;rounded=0;html=1;whiteSpace=wrap;fontSize=12;fontFamily=Helvetica;fillColor=#d5e8d4;strokeColor=#82b366;" parent="TOCDHdvm8-HeGQYIKiHr-162" vertex="1">
          <mxGeometry x="-650" y="540" width="50.71" height="30" as="geometry" />
        </mxCell>
        <mxCell id="TOCDHdvm8-HeGQYIKiHr-171" value="&lt;div style=&quot;font-size: 12px;&quot;&gt;&lt;font style=&quot;font-size: 12px; color: rgb(0, 0, 0); direction: ltr; letter-spacing: 0px; line-height: 120%; opacity: 1;&quot;&gt;National Security Directive 42 &lt;br style=&quot;font-size: 12px;&quot;&gt;(NSD-42)&lt;br style=&quot;font-size: 12px;&quot;&gt;&lt;/font&gt;&lt;/div&gt;" style="verticalAlign=middle;align=center;overflow=width;vsdxID=150;gradientDirection=north;shape=stencil(nZBLDoAgDERP0z3SIyjew0SURgSD+Lu9kMZoXLhwN9O+tukAlrNpJg1SzDH4QW/URgNYgZTkjA4UkwJUgGXng+6DX1zLfmoymdXo17xh5zmRJ6Q42BWCfc2oJfdAr+Yv+AP9Cb7OJ3H/2JG1HNGz/84klThPVCc=);shadow=0;spacingTop=-1;spacingBottom=-1;spacingLeft=-1;spacingRight=-1;points=[[1,0.5,0],[0.5,0.5,0],[0.5,0,0]];labelBackgroundColor=none;rounded=0;html=1;whiteSpace=wrap;fontSize=12;fontFamily=Helvetica;fillColor=#d5e8d4;strokeColor=#82b366;" parent="TOCDHdvm8-HeGQYIKiHr-162" vertex="1">
          <mxGeometry x="-531" y="500" width="100" height="60" as="geometry" />
        </mxCell>
        <mxCell id="TOCDHdvm8-HeGQYIKiHr-328" value="DNI" style="swimlane;horizontal=0;whiteSpace=wrap;html=1;fontSize=12;fontFamily=Helvetica;" parent="TOCDHdvm8-HeGQYIKiHr-162" vertex="1">
          <mxGeometry x="-840" y="632.1700000000001" width="160" height="84" as="geometry" />
        </mxCell>
        <mxCell id="TOCDHdvm8-HeGQYIKiHr-311" value="Insider Threat&amp;nbsp;Task Force&amp;nbsp;(ITFF)" style="rounded=0;whiteSpace=wrap;html=1;fontSize=12;fontFamily=Helvetica;fillColor=#e1d5e7;strokeColor=#9673a6;" parent="TOCDHdvm8-HeGQYIKiHr-328" vertex="1">
          <mxGeometry x="30" y="17" width="100" height="50" as="geometry" />
        </mxCell>
        <mxCell id="TOCDHdvm8-HeGQYIKiHr-329" value="General Service Administration" style="swimlane;horizontal=0;whiteSpace=wrap;html=1;startSize=40;shadow=0;fontSize=12;fontFamily=Helvetica;" parent="TOCDHdvm8-HeGQYIKiHr-162" vertex="1">
          <mxGeometry x="-840" y="-110" width="170" height="510" as="geometry" />
        </mxCell>
        <UserObject label="&lt;div style=&quot;font-size: 12px;&quot;&gt;&lt;font style=&quot;font-size: 12px; color: rgb(0, 0, 0); direction: ltr; letter-spacing: 0px; line-height: 120%; opacity: 1;&quot;&gt;FPKI Policy Authority&lt;br style=&quot;font-size: 12px;&quot;&gt;&lt;/font&gt;&lt;/div&gt;" tags="Flowchart" id="TOCDHdvm8-HeGQYIKiHr-288">
          <mxCell style="verticalAlign=middle;align=center;overflow=width;vsdxID=82;gradientDirection=north;shape=stencil(nZBLDoAgDERP0z3SIyjew0SURgSD+Lu9kMZoXLhwN9O+tukAlrNpJg1SzDH4QW/URgNYgZTkjA4UkwJUgGXng+6DX1zLfmoymdXo17xh5zmRJ6Q42BWCfc2oJfdAr+Yv+AP9Cb7OJ3H/2JG1HNGz/84klThPVCc=);spacingTop=-1;spacingBottom=-1;spacingLeft=-1;spacingRight=-1;points=[[1,0.5,0],[0.5,0.5,0],[0.5,0,0]];labelBackgroundColor=none;rounded=0;html=1;whiteSpace=wrap;shadow=0;fontSize=12;fontFamily=Helvetica;fillColor=#e1d5e7;strokeColor=#9673a6;" parent="TOCDHdvm8-HeGQYIKiHr-329" vertex="1">
            <mxGeometry x="50" y="10" width="100" height="50" as="geometry" />
          </mxCell>
        </UserObject>
        <UserObject label="&lt;div style=&quot;font-size: 12px;&quot;&gt;&lt;font style=&quot;font-size: 12px; color: rgb(0, 0, 0); direction: ltr; letter-spacing: 0px; line-height: 120%; opacity: 1;&quot;&gt;FPKI Management Authority&lt;br style=&quot;font-size: 12px;&quot;&gt;&lt;/font&gt;&lt;/div&gt;" tags="Flowchart" id="ggG3lRJB8GXEoVEXRnXH-138">
          <mxCell style="verticalAlign=middle;align=center;overflow=width;vsdxID=83;gradientDirection=north;shape=stencil(nZBLDoAgDERP0z3SIyjew0SURgSD+Lu9kMZoXLhwN9O+tukAlrNpJg1SzDH4QW/URgNYgZTkjA4UkwJUgGXng+6DX1zLfmoymdXo17xh5zmRJ6Q42BWCfc2oJfdAr+Yv+AP9Cb7OJ3H/2JG1HNGz/84klThPVCc=);spacingTop=-1;spacingBottom=-1;spacingLeft=-1;spacingRight=-1;points=[[1,0.5,0],[0.5,0.5,0],[0.5,0,0]];labelBackgroundColor=none;rounded=0;html=1;whiteSpace=wrap;shadow=0;fontSize=12;fontFamily=Helvetica;fillColor=#e1d5e7;strokeColor=#9673a6;" parent="TOCDHdvm8-HeGQYIKiHr-329" vertex="1">
            <mxGeometry x="50" y="260" width="100" height="60" as="geometry" />
          </mxCell>
        </UserObject>
        <UserObject label="&lt;div style=&quot;font-size: 12px;&quot;&gt;&lt;font style=&quot;font-size: 12px; color: rgb(0, 0, 0); direction: ltr; letter-spacing: 0px; line-height: 120%; opacity: 1;&quot;&gt;FIPS 201 Testing Program&lt;br style=&quot;font-size: 12px;&quot;&gt;&lt;/font&gt;&lt;/div&gt;" tags="Flowchart" id="TOCDHdvm8-HeGQYIKiHr-290">
          <mxCell style="verticalAlign=middle;align=center;overflow=width;vsdxID=173;shape=stencil(nZBLDoAgDERP0z3SIyjew0SURgSD+Lu9kMZoXLhwN9O+tukAlrNpJg1SzDH4QW/URgNYgZTkjA4UkwJUgGXng+6DX1zLfmoymdXo17xh5zmRJ6Q42BWCfc2oJfdAr+Yv+AP9Cb7OJ3H/2JG1HNGz/84klThPVCc=);shadow=0;spacingTop=-1;spacingBottom=-1;spacingLeft=-1;spacingRight=-1;points=[[1,0.5,0],[0.5,0.5,0],[0.5,0,0]];labelBackgroundColor=none;rounded=0;html=1;whiteSpace=wrap;fontSize=12;fontFamily=Helvetica;fillColor=#e1d5e7;strokeColor=#9673a6;" parent="TOCDHdvm8-HeGQYIKiHr-329" vertex="1">
            <mxGeometry x="49.999999999999986" y="420" width="81.59" height="30" as="geometry" />
          </mxCell>
        </UserObject>
        <UserObject label="&lt;div style=&quot;font-size: 12px;&quot;&gt;&lt;font style=&quot;font-size: 12px; color: rgb(0, 0, 0); direction: ltr; letter-spacing: 0px; line-height: 120%; opacity: 1;&quot;&gt;FPKI Certificate Policy Working Group&lt;br style=&quot;font-size: 12px;&quot;&gt;&lt;/font&gt;&lt;/div&gt;" tags="Flowchart" id="Nrz4EeOHtD00HPhqAW5B-96">
          <mxCell style="verticalAlign=middle;align=center;overflow=width;vsdxID=82;gradientDirection=north;shape=stencil(nZBLDoAgDERP0z3SIyjew0SURgSD+Lu9kMZoXLhwN9O+tukAlrNpJg1SzDH4QW/URgNYgZTkjA4UkwJUgGXng+6DX1zLfmoymdXo17xh5zmRJ6Q42BWCfc2oJfdAr+Yv+AP9Cb7OJ3H/2JG1HNGz/84klThPVCc=);spacingTop=-1;spacingBottom=-1;spacingLeft=-1;spacingRight=-1;points=[[1,0.5,0],[0.5,0.5,0],[0.5,0,0]];labelBackgroundColor=none;rounded=0;html=1;whiteSpace=wrap;shadow=0;fontSize=12;fontFamily=Helvetica;fillColor=#e1d5e7;strokeColor=#9673a6;" vertex="1" parent="TOCDHdvm8-HeGQYIKiHr-329">
            <mxGeometry x="50" y="170" width="100" height="70" as="geometry" />
          </mxCell>
        </UserObject>
        <mxCell id="ggG3lRJB8GXEoVEXRnXH-112" style="edgeStyle=orthogonalEdgeStyle;rounded=0;orthogonalLoop=1;jettySize=auto;html=1;exitX=0.5;exitY=0.5;exitDx=0;exitDy=0;exitPerimeter=0;fontSize=12;fontFamily=Helvetica;" parent="TOCDHdvm8-HeGQYIKiHr-162" source="ggG3lRJB8GXEoVEXRnXH-111" target="TOCDHdvm8-HeGQYIKiHr-182" edge="1">
          <mxGeometry relative="1" as="geometry" />
        </mxCell>
        <mxCell id="ggG3lRJB8GXEoVEXRnXH-111" value="&lt;div style=&quot;font-size: 12px;&quot;&gt;&lt;font style=&quot;font-size: 12px; color: rgb(0, 0, 0); direction: ltr; letter-spacing: 0px; line-height: 120%; opacity: 1;&quot;&gt;M-05-04&lt;/font&gt;&lt;/div&gt;" style="verticalAlign=middle;align=center;overflow=width;vsdxID=142;gradientDirection=north;shape=stencil(nZBLDoAgDERP0z3SIyjew0SURgSD+Lu9kMZoXLhwN9O+tukAlrNpJg1SzDH4QW/URgNYgZTkjA4UkwJUgGXng+6DX1zLfmoymdXo17xh5zmRJ6Q42BWCfc2oJfdAr+Yv+AP9Cb7OJ3H/2JG1HNGz/84klThPVCc=);shadow=0;spacingTop=-1;spacingBottom=-1;spacingLeft=-1;spacingRight=-1;points=[[1,0.5,0],[0.5,0.5,0],[0.5,0,0]];labelBackgroundColor=none;rounded=0;html=1;whiteSpace=wrap;fontSize=12;fontFamily=Helvetica;fillColor=#dae8fc;strokeColor=#6c8ebf;" parent="TOCDHdvm8-HeGQYIKiHr-162" vertex="1">
          <mxGeometry x="-327.25" y="165" width="60" height="30" as="geometry" />
        </mxCell>
        <mxCell id="ggG3lRJB8GXEoVEXRnXH-114" value="ICAM Playbooks" style="swimlane;whiteSpace=wrap;html=1;fontSize=12;fontFamily=Helvetica;" parent="TOCDHdvm8-HeGQYIKiHr-162" vertex="1">
          <mxGeometry x="-650" y="-354.9" width="230" height="180" as="geometry" />
        </mxCell>
        <UserObject label="&lt;div style=&quot;font-size: 12px;&quot;&gt;&lt;font style=&quot;font-size: 12px; color: rgb(0, 0, 0); direction: ltr; letter-spacing: 0px; line-height: 120%; opacity: 1;&quot;&gt;FICAM Architecture&lt;br style=&quot;font-size: 12px;&quot;&gt;&lt;/font&gt;&lt;/div&gt;" tags="Flowchart" id="TOCDHdvm8-HeGQYIKiHr-281">
          <mxCell style="verticalAlign=middle;align=center;overflow=width;vsdxID=45;gradientDirection=north;shape=stencil(nZBLDoAgDERP0z3SIyjew0SURgSD+Lu9kMZoXLhwN9O+tukAlrNpJg1SzDH4QW/URgNYgZTkjA4UkwJUgGXng+6DX1zLfmoymdXo17xh5zmRJ6Q42BWCfc2oJfdAr+Yv+AP9Cb7OJ3H/2JG1HNGz/84klThPVCc=);shadow=0;spacingTop=-1;spacingBottom=-1;spacingLeft=-1;spacingRight=-1;points=[[1,0.5,0],[0.5,0.5,0],[0.5,0,0]];labelBackgroundColor=none;rounded=0;html=1;whiteSpace=wrap;fontSize=12;fontFamily=Helvetica;fillColor=#f5f5f5;fontColor=#333333;strokeColor=#666666;" parent="ggG3lRJB8GXEoVEXRnXH-114" vertex="1">
            <mxGeometry x="10" y="40" width="100" height="50" as="geometry" />
          </mxCell>
        </UserObject>
        <mxCell id="TOCDHdvm8-HeGQYIKiHr-211" value="&lt;div style=&quot;font-size: 12px;&quot;&gt;&lt;font style=&quot;font-size: 12px; color: rgb(0, 0, 0); direction: ltr; letter-spacing: 0px; line-height: 120%; opacity: 1;&quot;&gt;ICAM Architecture Playbook&lt;br style=&quot;font-size: 12px;&quot;&gt;&lt;/font&gt;&lt;/div&gt;" style="verticalAlign=middle;align=center;overflow=width;vsdxID=227;gradientDirection=north;shape=stencil(nZBLDoAgDERP0z3SIyjew0SURgSD+Lu9kMZoXLhwN9O+tukAlrNpJg1SzDH4QW/URgNYgZTkjA4UkwJUgGXng+6DX1zLfmoymdXo17xh5zmRJ6Q42BWCfc2oJfdAr+Yv+AP9Cb7OJ3H/2JG1HNGz/84klThPVCc=);spacingTop=-1;spacingBottom=-1;spacingLeft=-1;spacingRight=-1;points=[[1,0.5,0],[0.5,0.5,0],[0.5,0,0]];labelBackgroundColor=none;rounded=0;html=1;whiteSpace=wrap;shadow=0;fontSize=12;fontFamily=Helvetica;fillColor=#f5f5f5;fontColor=#333333;strokeColor=#666666;" parent="ggG3lRJB8GXEoVEXRnXH-114" vertex="1">
          <mxGeometry x="120" y="40" width="100" height="50" as="geometry" />
        </mxCell>
        <mxCell id="TOCDHdvm8-HeGQYIKiHr-212" value="&lt;div style=&quot;font-size: 12px;&quot;&gt;&lt;font style=&quot;font-size: 12px; color: rgb(0, 0, 0); direction: ltr; letter-spacing: 0px; line-height: 120%; opacity: 1;&quot;&gt;Technical Implementation Playbooks&lt;br style=&quot;font-size: 12px;&quot;&gt;&lt;/font&gt;&lt;/div&gt;" style="verticalAlign=middle;align=center;overflow=width;vsdxID=228;shape=stencil(nZBLDoAgDERP0z3SIyjew0SURgSD+Lu9kMZoXLhwN9O+tukAlrNpJg1SzDH4QW/URgNYgZTkjA4UkwJUgGXng+6DX1zLfmoymdXo17xh5zmRJ6Q42BWCfc2oJfdAr+Yv+AP9Cb7OJ3H/2JG1HNGz/84klThPVCc=);spacingTop=-1;spacingBottom=-1;spacingLeft=-1;spacingRight=-1;points=[[1,0.5,0],[0.5,0.5,0],[0.5,0,0]];labelBackgroundColor=none;rounded=0;html=1;whiteSpace=wrap;shadow=0;fontSize=12;fontFamily=Helvetica;fillColor=#f5f5f5;fontColor=#333333;strokeColor=#666666;" parent="ggG3lRJB8GXEoVEXRnXH-114" vertex="1">
          <mxGeometry x="120" y="110" width="100" height="50" as="geometry" />
        </mxCell>
        <mxCell id="TOCDHdvm8-HeGQYIKiHr-213" value="&lt;div style=&quot;font-size: 12px;&quot;&gt;&lt;font style=&quot;font-size: 12px; color: rgb(0, 0, 0); direction: ltr; letter-spacing: 0px; line-height: 120%; opacity: 1;&quot;&gt;Programmatic Playbooks&lt;br style=&quot;font-size: 12px;&quot;&gt;&lt;/font&gt;&lt;/div&gt;" style="verticalAlign=middle;align=center;overflow=width;vsdxID=229;shape=stencil(nZBLDoAgDERP0z3SIyjew0SURgSD+Lu9kMZoXLhwN9O+tukAlrNpJg1SzDH4QW/URgNYgZTkjA4UkwJUgGXng+6DX1zLfmoymdXo17xh5zmRJ6Q42BWCfc2oJfdAr+Yv+AP9Cb7OJ3H/2JG1HNGz/84klThPVCc=);spacingTop=-1;spacingBottom=-1;spacingLeft=-1;spacingRight=-1;points=[[1,0.5,0],[0.5,0.5,0],[0.5,0,0]];labelBackgroundColor=none;rounded=0;html=1;whiteSpace=wrap;shadow=0;fontSize=12;fontFamily=Helvetica;fillColor=#f5f5f5;fontColor=#333333;strokeColor=#666666;" parent="ggG3lRJB8GXEoVEXRnXH-114" vertex="1">
          <mxGeometry x="10" y="110" width="100" height="50" as="geometry" />
        </mxCell>
        <mxCell id="ggG3lRJB8GXEoVEXRnXH-119" value="FIPS 201 Testing" style="swimlane;fontSize=12;fontFamily=Helvetica;" parent="TOCDHdvm8-HeGQYIKiHr-162" vertex="1">
          <mxGeometry x="-617.93" y="232.5" width="177.93" height="167.5" as="geometry" />
        </mxCell>
        <mxCell id="TOCDHdvm8-HeGQYIKiHr-223" value="&lt;div style=&quot;font-size: 12px;&quot;&gt;&lt;font style=&quot;font-size: 12px; color: rgb(0, 0, 0); direction: ltr; letter-spacing: 0px; line-height: 120%; opacity: 1;&quot;&gt;FIPS 201 Approved Products List (APL)&lt;br style=&quot;font-size: 12px;&quot;&gt;&lt;/font&gt;&lt;/div&gt;" style="verticalAlign=middle;align=center;overflow=width;vsdxID=248;gradientDirection=north;shape=stencil(nZBLDoAgDERP0z3SIyjew0SURgSD+Lu9kMZoXLhwN9O+tukAlrNpJg1SzDH4QW/URgNYgZTkjA4UkwJUgGXng+6DX1zLfmoymdXo17xh5zmRJ6Q42BWCfc2oJfdAr+Yv+AP9Cb7OJ3H/2JG1HNGz/84klThPVCc=);spacingTop=-1;spacingBottom=-1;spacingLeft=-1;spacingRight=-1;points=[[1,0.5,0],[0.5,0.5,0],[0.5,0,0]];labelBackgroundColor=none;rounded=0;html=1;whiteSpace=wrap;shadow=0;fontSize=12;fontFamily=Helvetica;fillColor=#f5f5f5;fontColor=#333333;strokeColor=#666666;" parent="ggG3lRJB8GXEoVEXRnXH-119" vertex="1">
          <mxGeometry x="15" y="30" width="145" height="50" as="geometry" />
        </mxCell>
        <mxCell id="TOCDHdvm8-HeGQYIKiHr-221" value="&lt;div style=&quot;font-size: 12px;&quot;&gt;&lt;font style=&quot;font-size: 12px; color: rgb(0, 0, 0); direction: ltr; letter-spacing: 0px; line-height: 120%; opacity: 1;&quot;&gt;New Test Categories/ Procedures (PACS/LACS/Federation)&lt;br style=&quot;font-size: 12px;&quot;&gt;&lt;/font&gt;&lt;/div&gt;" style="verticalAlign=middle;align=center;overflow=width;vsdxID=246;gradientDirection=north;shape=stencil(nZBLDoAgDERP0z3SIyjew0SURgSD+Lu9kMZoXLhwN9O+tukAlrNpJg1SzDH4QW/URgNYgZTkjA4UkwJUgGXng+6DX1zLfmoymdXo17xh5zmRJ6Q42BWCfc2oJfdAr+Yv+AP9Cb7OJ3H/2JG1HNGz/84klThPVCc=);spacingTop=-1;spacingBottom=-1;spacingLeft=-1;spacingRight=-1;points=[[1,0.5,0],[0.5,0.5,0],[0.5,0,0]];labelBackgroundColor=none;rounded=0;html=1;whiteSpace=wrap;shadow=0;fontSize=12;fontFamily=Helvetica;fillColor=#f5f5f5;fontColor=#333333;strokeColor=#666666;" parent="ggG3lRJB8GXEoVEXRnXH-119" vertex="1">
          <mxGeometry x="15" y="97.5" width="145" height="60" as="geometry" />
        </mxCell>
        <UserObject label="&lt;div style=&quot;font-size: 12px;&quot;&gt;&lt;font style=&quot;font-size: 12px; color: rgb(0, 0, 0); direction: ltr; letter-spacing: 0px; line-height: 120%; opacity: 1;&quot;&gt;USAccess&lt;br style=&quot;font-size: 12px;&quot;&gt;&lt;/font&gt;&lt;/div&gt;" tags="Flowchart" id="TOCDHdvm8-HeGQYIKiHr-286">
          <mxCell style="verticalAlign=middle;align=center;overflow=width;vsdxID=84;shape=stencil(nZBLDoAgDERP0z3SIyjew0SURgSD+Lu9kMZoXLhwN9O+tukAlrNpJg1SzDH4QW/URgNYgZTkjA4UkwJUgGXng+6DX1zLfmoymdXo17xh5zmRJ6Q42BWCfc2oJfdAr+Yv+AP9Cb7OJ3H/2JG1HNGz/84klThPVCc=);shadow=0;spacingTop=-1;spacingBottom=-1;spacingLeft=-1;spacingRight=-1;points=[[1,0.5,0],[0.5,0.5,0],[0.5,0,0]];labelBackgroundColor=none;rounded=0;html=1;whiteSpace=wrap;gradientDirection=north;fontSize=12;fontFamily=Helvetica;fillColor=#ffe6cc;strokeColor=#d79b00;" parent="TOCDHdvm8-HeGQYIKiHr-162" vertex="1">
            <mxGeometry x="-384.80000000000007" y="261.25" width="60" height="30" as="geometry" />
          </mxCell>
        </UserObject>
        <mxCell id="Nrz4EeOHtD00HPhqAW5B-124" style="edgeStyle=orthogonalEdgeStyle;rounded=0;orthogonalLoop=1;jettySize=auto;html=1;entryX=1;entryY=0.5;entryDx=0;entryDy=0;entryPerimeter=0;" edge="1" parent="TOCDHdvm8-HeGQYIKiHr-162" source="TOCDHdvm8-HeGQYIKiHr-287" target="TOCDHdvm8-HeGQYIKiHr-286">
          <mxGeometry relative="1" as="geometry" />
        </mxCell>
        <UserObject label="&lt;div style=&quot;font-size: 12px;&quot;&gt;&lt;font style=&quot;font-size: 12px; color: rgb(0, 0, 0); direction: ltr; letter-spacing: 0px; line-height: 120%; opacity: 1;&quot;&gt;M-16-04&lt;br style=&quot;font-size: 12px;&quot;&gt;&lt;/font&gt;&lt;/div&gt;" tags="Flowchart" id="TOCDHdvm8-HeGQYIKiHr-287">
          <mxCell style="verticalAlign=middle;align=center;overflow=width;vsdxID=101;gradientDirection=north;shape=stencil(nZBLDoAgDERP0z3SIyjew0SURgSD+Lu9kMZoXLhwN9O+tukAlrNpJg1SzDH4QW/URgNYgZTkjA4UkwJUgGXng+6DX1zLfmoymdXo17xh5zmRJ6Q42BWCfc2oJfdAr+Yv+AP9Cb7OJ3H/2JG1HNGz/84klThPVCc=);shadow=0;spacingTop=-1;spacingBottom=-1;spacingLeft=-1;spacingRight=-1;points=[[1,0.5,0],[0.5,0.5,0],[0.5,0,0]];labelBackgroundColor=none;rounded=0;html=1;whiteSpace=wrap;fontSize=12;fontFamily=Helvetica;fillColor=#dae8fc;strokeColor=#6c8ebf;" parent="TOCDHdvm8-HeGQYIKiHr-162" vertex="1">
            <mxGeometry x="-225.31000000000012" y="278.75" width="60" height="30" as="geometry" />
          </mxCell>
        </UserObject>
        <UserObject label="&lt;div style=&quot;font-size: 12px;&quot;&gt;&lt;font style=&quot;font-size: 12px; color: rgb(0, 0, 0); direction: ltr; letter-spacing: 0px; line-height: 120%; opacity: 1;&quot;&gt;Login.gov&lt;br style=&quot;font-size: 12px;&quot;&gt;&lt;/font&gt;&lt;/div&gt;" tags="Flowchart" id="TOCDHdvm8-HeGQYIKiHr-216">
          <mxCell style="verticalAlign=middle;align=center;overflow=width;vsdxID=236;shape=stencil(nZBLDoAgDERP0z3SIyjew0SURgSD+Lu9kMZoXLhwN9O+tukAlrNpJg1SzDH4QW/URgNYgZTkjA4UkwJUgGXng+6DX1zLfmoymdXo17xh5zmRJ6Q42BWCfc2oJfdAr+Yv+AP9Cb7OJ3H/2JG1HNGz/84klThPVCc=);spacingTop=-1;spacingBottom=-1;spacingLeft=-1;spacingRight=-1;points=[[1,0.5,0],[0.5,0.5,0],[0.5,0,0]];labelBackgroundColor=none;rounded=0;html=1;whiteSpace=wrap;shadow=0;fontSize=12;fontFamily=Helvetica;fillColor=#ffe6cc;strokeColor=#d79b00;" parent="TOCDHdvm8-HeGQYIKiHr-162" vertex="1">
            <mxGeometry x="-383.30000000000007" y="340" width="60" height="30" as="geometry" />
          </mxCell>
        </UserObject>
        <UserObject label="&lt;div style=&quot;font-size: 12px;&quot;&gt;&lt;font style=&quot;font-size: 12px; color: rgb(0, 0, 0); direction: ltr; letter-spacing: 0px; line-height: 120%; opacity: 1;&quot;&gt;Max.gov&lt;br style=&quot;font-size: 12px;&quot;&gt;&lt;/font&gt;&lt;/div&gt;" tags="Flowchart" id="ggG3lRJB8GXEoVEXRnXH-133">
          <mxCell style="verticalAlign=middle;align=center;overflow=width;vsdxID=236;shape=stencil(nZBLDoAgDERP0z3SIyjew0SURgSD+Lu9kMZoXLhwN9O+tukAlrNpJg1SzDH4QW/URgNYgZTkjA4UkwJUgGXng+6DX1zLfmoymdXo17xh5zmRJ6Q42BWCfc2oJfdAr+Yv+AP9Cb7OJ3H/2JG1HNGz/84klThPVCc=);spacingTop=-1;spacingBottom=-1;spacingLeft=-1;spacingRight=-1;points=[[1,0.5,0],[0.5,0.5,0],[0.5,0,0]];labelBackgroundColor=none;rounded=0;html=1;whiteSpace=wrap;shadow=0;fontSize=12;fontFamily=Helvetica;fillColor=#ffe6cc;strokeColor=#d79b00;" parent="TOCDHdvm8-HeGQYIKiHr-162" vertex="1">
            <mxGeometry x="-384.8" y="408.75" width="63" height="45" as="geometry" />
          </mxCell>
        </UserObject>
        <UserObject label="&lt;div style=&quot;font-size: 12px;&quot;&gt;&lt;font style=&quot;font-size: 12px; color: rgb(0, 0, 0); direction: ltr; letter-spacing: 0px; line-height: 120%; opacity: 1;&quot;&gt;PKI Shared Service Providers&lt;br style=&quot;font-size: 12px;&quot;&gt;&lt;/font&gt;&lt;/div&gt;" tags="Flowchart" id="ggG3lRJB8GXEoVEXRnXH-135">
          <mxCell style="verticalAlign=middle;align=center;overflow=width;vsdxID=236;shape=stencil(nZBLDoAgDERP0z3SIyjew0SURgSD+Lu9kMZoXLhwN9O+tukAlrNpJg1SzDH4QW/URgNYgZTkjA4UkwJUgGXng+6DX1zLfmoymdXo17xh5zmRJ6Q42BWCfc2oJfdAr+Yv+AP9Cb7OJ3H/2JG1HNGz/84klThPVCc=);spacingTop=-1;spacingBottom=-1;spacingLeft=-1;spacingRight=-1;points=[[1,0.5,0],[0.5,0.5,0],[0.5,0,0]];labelBackgroundColor=none;rounded=0;html=1;whiteSpace=wrap;shadow=0;fontSize=12;fontFamily=Helvetica;fillColor=#ffe6cc;strokeColor=#d79b00;" parent="TOCDHdvm8-HeGQYIKiHr-162" vertex="1">
            <mxGeometry x="-432.50000000000006" y="-7" width="101.5" height="40" as="geometry" />
          </mxCell>
        </UserObject>
        <mxCell id="ggG3lRJB8GXEoVEXRnXH-139" value="NIST Technical Standards" style="swimlane;fontSize=12;fontFamily=Helvetica;" parent="TOCDHdvm8-HeGQYIKiHr-162" vertex="1">
          <mxGeometry x="-650" y="-800" width="320" height="370" as="geometry" />
        </mxCell>
        <mxCell id="TOCDHdvm8-HeGQYIKiHr-209" value="&lt;div style=&quot;font-size: 12px;&quot;&gt;&lt;font style=&quot;font-size: 12px; color: rgb(0, 0, 0); direction: ltr; letter-spacing: 0px; line-height: 120%; opacity: 1;&quot;&gt;PIV-I for Issuers Policy&lt;br style=&quot;font-size: 12px;&quot;&gt;&lt;/font&gt;&lt;/div&gt;" style="verticalAlign=middle;align=center;overflow=width;vsdxID=225;shape=stencil(nZBLDoAgDERP0z3SIyjew0SURgSD+Lu9kMZoXLhwN9O+tukAlrNpJg1SzDH4QW/URgNYgZTkjA4UkwJUgGXng+6DX1zLfmoymdXo17xh5zmRJ6Q42BWCfc2oJfdAr+Yv+AP9Cb7OJ3H/2JG1HNGz/84klThPVCc=);spacingTop=-1;spacingBottom=-1;spacingLeft=-1;spacingRight=-1;points=[[1,0.5,0],[0.5,0.5,0],[0.5,0,0]];labelBackgroundColor=none;rounded=0;html=1;whiteSpace=wrap;shadow=0;fontSize=12;fontFamily=Helvetica;fillColor=#f5f5f5;fontColor=#333333;strokeColor=#666666;" parent="ggG3lRJB8GXEoVEXRnXH-139" vertex="1">
          <mxGeometry x="10" y="310" width="80" height="47" as="geometry" />
        </mxCell>
        <UserObject label="&lt;div style=&quot;font-size: 12px;&quot;&gt;&lt;font style=&quot;font-size: 12px; color: rgb(0, 0, 0); direction: ltr; letter-spacing: 0px; line-height: 120%; opacity: 1;&quot;&gt;NIST Best Practices Privileged  User Guide&lt;br style=&quot;font-size: 12px;&quot;&gt;&lt;/font&gt;&lt;/div&gt;" tags="Flowchart" id="TOCDHdvm8-HeGQYIKiHr-217">
          <mxCell style="verticalAlign=middle;align=center;overflow=width;vsdxID=221;gradientDirection=north;shape=stencil(nZBLDoAgDERP0z3SIyjew0SURgSD+Lu9kMZoXLhwN9O+tukAlrNpJg1SzDH4QW/URgNYgZTkjA4UkwJUgGXng+6DX1zLfmoymdXo17xh5zmRJ6Q42BWCfc2oJfdAr+Yv+AP9Cb7OJ3H/2JG1HNGz/84klThPVCc=);spacingTop=-1;spacingBottom=-1;spacingLeft=-1;spacingRight=-1;points=[[1,0.5,0],[0.5,0.5,0],[0.5,0,0]];labelBackgroundColor=none;rounded=0;html=1;whiteSpace=wrap;shadow=0;fontSize=12;fontFamily=Helvetica;fillColor=#f5f5f5;fontColor=#333333;strokeColor=#666666;" parent="ggG3lRJB8GXEoVEXRnXH-139" vertex="1">
            <mxGeometry x="110" y="310" width="110" height="47" as="geometry" />
          </mxCell>
        </UserObject>
        <mxCell id="ggG3lRJB8GXEoVEXRnXH-110" value="PIV Technical Standards" style="swimlane;whiteSpace=wrap;html=1;fontSize=12;fontFamily=Helvetica;" parent="ggG3lRJB8GXEoVEXRnXH-139" vertex="1">
          <mxGeometry x="10" y="140" width="290" height="160" as="geometry" />
        </mxCell>
        <mxCell id="TOCDHdvm8-HeGQYIKiHr-255" value="&lt;div style=&quot;font-size: 12px;&quot;&gt;&lt;font style=&quot;font-size: 12px; color: rgb(0, 0, 0); direction: ltr; letter-spacing: 0px; line-height: 120%; opacity: 1;&quot;&gt;SP 800-73&lt;br style=&quot;font-size: 12px;&quot;&gt;&lt;/font&gt;&lt;/div&gt;" style="verticalAlign=middle;align=center;overflow=width;vsdxID=55;gradientDirection=north;shape=stencil(nZBLDoAgDERP0z3SIyjew0SURgSD+Lu9kMZoXLhwN9O+tukAlrNpJg1SzDH4QW/URgNYgZTkjA4UkwJUgGXng+6DX1zLfmoymdXo17xh5zmRJ6Q42BWCfc2oJfdAr+Yv+AP9Cb7OJ3H/2JG1HNGz/84klThPVCc=);shadow=0;spacingTop=-1;spacingBottom=-1;spacingLeft=-1;spacingRight=-1;points=[[1,0.5,0],[0.5,0.5,0],[0.5,0,0]];labelBackgroundColor=none;rounded=0;html=1;whiteSpace=wrap;fontSize=12;fontFamily=Helvetica;fillColor=#f5f5f5;fontColor=#333333;strokeColor=#666666;" parent="ggG3lRJB8GXEoVEXRnXH-110" vertex="1">
          <mxGeometry x="10" y="60" width="80" height="30" as="geometry" />
        </mxCell>
        <mxCell id="TOCDHdvm8-HeGQYIKiHr-256" value="&lt;div style=&quot;font-size: 12px;&quot;&gt;&lt;font style=&quot;font-size: 12px; color: rgb(0, 0, 0); direction: ltr; letter-spacing: 0px; line-height: 120%; opacity: 1;&quot;&gt;SP 800-76&lt;br style=&quot;font-size: 12px;&quot;&gt;&lt;/font&gt;&lt;/div&gt;" style="verticalAlign=middle;align=center;overflow=width;vsdxID=56;gradientDirection=north;shape=stencil(nZBLDoAgDERP0z3SIyjew0SURgSD+Lu9kMZoXLhwN9O+tukAlrNpJg1SzDH4QW/URgNYgZTkjA4UkwJUgGXng+6DX1zLfmoymdXo17xh5zmRJ6Q42BWCfc2oJfdAr+Yv+AP9Cb7OJ3H/2JG1HNGz/84klThPVCc=);shadow=0;spacingTop=-1;spacingBottom=-1;spacingLeft=-1;spacingRight=-1;points=[[1,0.5,0],[0.5,0.5,0],[0.5,0,0]];labelBackgroundColor=none;rounded=0;html=1;whiteSpace=wrap;fontSize=12;fontFamily=Helvetica;fillColor=#f5f5f5;fontColor=#333333;strokeColor=#666666;" parent="ggG3lRJB8GXEoVEXRnXH-110" vertex="1">
          <mxGeometry x="105" y="90" width="80" height="30" as="geometry" />
        </mxCell>
        <mxCell id="TOCDHdvm8-HeGQYIKiHr-257" value="&lt;div style=&quot;font-size: 12px;&quot;&gt;&lt;font style=&quot;font-size: 12px; color: rgb(0, 0, 0); direction: ltr; letter-spacing: 0px; line-height: 120%; opacity: 1;&quot;&gt;SP 800-78&lt;br style=&quot;font-size: 12px;&quot;&gt;&lt;/font&gt;&lt;/div&gt;" style="verticalAlign=middle;align=center;overflow=width;vsdxID=57;gradientDirection=north;shape=stencil(nZBLDoAgDERP0z3SIyjew0SURgSD+Lu9kMZoXLhwN9O+tukAlrNpJg1SzDH4QW/URgNYgZTkjA4UkwJUgGXng+6DX1zLfmoymdXo17xh5zmRJ6Q42BWCfc2oJfdAr+Yv+AP9Cb7OJ3H/2JG1HNGz/84klThPVCc=);shadow=0;spacingTop=-1;spacingBottom=-1;spacingLeft=-1;spacingRight=-1;points=[[1,0.5,0],[0.5,0.5,0],[0.5,0,0]];labelBackgroundColor=none;rounded=0;html=1;whiteSpace=wrap;fontSize=12;fontFamily=Helvetica;fillColor=#f5f5f5;fontColor=#333333;strokeColor=#666666;" parent="ggG3lRJB8GXEoVEXRnXH-110" vertex="1">
          <mxGeometry x="105" y="60" width="80" height="30" as="geometry" />
        </mxCell>
        <mxCell id="TOCDHdvm8-HeGQYIKiHr-258" value="&lt;div style=&quot;font-size: 12px;&quot;&gt;&lt;font style=&quot;font-size: 12px; color: rgb(0, 0, 0); direction: ltr; letter-spacing: 0px; line-height: 120%; opacity: 1;&quot;&gt;SP 800-79&lt;br style=&quot;font-size: 12px;&quot;&gt;&lt;/font&gt;&lt;/div&gt;" style="verticalAlign=middle;align=center;overflow=width;vsdxID=58;gradientDirection=north;shape=stencil(nZBLDoAgDERP0z3SIyjew0SURgSD+Lu9kMZoXLhwN9O+tukAlrNpJg1SzDH4QW/URgNYgZTkjA4UkwJUgGXng+6DX1zLfmoymdXo17xh5zmRJ6Q42BWCfc2oJfdAr+Yv+AP9Cb7OJ3H/2JG1HNGz/84klThPVCc=);shadow=0;spacingTop=-1;spacingBottom=-1;spacingLeft=-1;spacingRight=-1;points=[[1,0.5,0],[0.5,0.5,0],[0.5,0,0]];labelBackgroundColor=none;rounded=0;html=1;whiteSpace=wrap;fontSize=12;fontFamily=Helvetica;fillColor=#f5f5f5;fontColor=#333333;strokeColor=#666666;" parent="ggG3lRJB8GXEoVEXRnXH-110" vertex="1">
          <mxGeometry x="10" y="90" width="80" height="30" as="geometry" />
        </mxCell>
        <mxCell id="TOCDHdvm8-HeGQYIKiHr-259" value="&lt;div style=&quot;font-size: 12px;&quot;&gt;&lt;font style=&quot;font-size: 12px; color: rgb(0, 0, 0); direction: ltr; letter-spacing: 0px; line-height: 120%; opacity: 1;&quot;&gt;SP 800-85&lt;br style=&quot;font-size: 12px;&quot;&gt;&lt;/font&gt;&lt;/div&gt;" style="verticalAlign=middle;align=center;overflow=width;vsdxID=59;gradientDirection=north;shape=stencil(nZBLDoAgDERP0z3SIyjew0SURgSD+Lu9kMZoXLhwN9O+tukAlrNpJg1SzDH4QW/URgNYgZTkjA4UkwJUgGXng+6DX1zLfmoymdXo17xh5zmRJ6Q42BWCfc2oJfdAr+Yv+AP9Cb7OJ3H/2JG1HNGz/84klThPVCc=);shadow=0;spacingTop=-1;spacingBottom=-1;spacingLeft=-1;spacingRight=-1;points=[[1,0.5,0],[0.5,0.5,0],[0.5,0,0]];labelBackgroundColor=none;rounded=0;html=1;whiteSpace=wrap;fontSize=12;fontFamily=Helvetica;fillColor=#f5f5f5;fontColor=#333333;strokeColor=#666666;" parent="ggG3lRJB8GXEoVEXRnXH-110" vertex="1">
          <mxGeometry x="10" y="120" width="80" height="30" as="geometry" />
        </mxCell>
        <mxCell id="TOCDHdvm8-HeGQYIKiHr-260" value="&lt;div style=&quot;font-size: 12px;&quot;&gt;&lt;font style=&quot;font-size: 12px; color: rgb(0, 0, 0); direction: ltr; letter-spacing: 0px; line-height: 120%; opacity: 1;&quot;&gt;SP 800-87&lt;br style=&quot;font-size: 12px;&quot;&gt;&lt;/font&gt;&lt;/div&gt;" style="verticalAlign=middle;align=center;overflow=width;vsdxID=60;gradientDirection=north;shape=stencil(nZBLDoAgDERP0z3SIyjew0SURgSD+Lu9kMZoXLhwN9O+tukAlrNpJg1SzDH4QW/URgNYgZTkjA4UkwJUgGXng+6DX1zLfmoymdXo17xh5zmRJ6Q42BWCfc2oJfdAr+Yv+AP9Cb7OJ3H/2JG1HNGz/84klThPVCc=);shadow=0;spacingTop=-1;spacingBottom=-1;spacingLeft=-1;spacingRight=-1;points=[[1,0.5,0],[0.5,0.5,0],[0.5,0,0]];labelBackgroundColor=none;rounded=0;html=1;whiteSpace=wrap;fontSize=12;fontFamily=Helvetica;fillColor=#f5f5f5;fontColor=#333333;strokeColor=#666666;" parent="ggG3lRJB8GXEoVEXRnXH-110" vertex="1">
          <mxGeometry x="105" y="30" width="80" height="30" as="geometry" />
        </mxCell>
        <mxCell id="TOCDHdvm8-HeGQYIKiHr-261" value="&lt;div style=&quot;font-size: 12px;&quot;&gt;&lt;font style=&quot;font-size: 12px; color: rgb(0, 0, 0); direction: ltr; letter-spacing: 0px; line-height: 120%; opacity: 1;&quot;&gt;SP 800-96&lt;br style=&quot;font-size: 12px;&quot;&gt;&lt;/font&gt;&lt;/div&gt;" style="verticalAlign=middle;align=center;overflow=width;vsdxID=61;gradientDirection=north;shape=stencil(nZBLDoAgDERP0z3SIyjew0SURgSD+Lu9kMZoXLhwN9O+tukAlrNpJg1SzDH4QW/URgNYgZTkjA4UkwJUgGXng+6DX1zLfmoymdXo17xh5zmRJ6Q42BWCfc2oJfdAr+Yv+AP9Cb7OJ3H/2JG1HNGz/84klThPVCc=);shadow=0;spacingTop=-1;spacingBottom=-1;spacingLeft=-1;spacingRight=-1;points=[[1,0.5,0],[0.5,0.5,0],[0.5,0,0]];labelBackgroundColor=none;rounded=0;html=1;whiteSpace=wrap;fontSize=12;fontFamily=Helvetica;fillColor=#f5f5f5;fontColor=#333333;strokeColor=#666666;" parent="ggG3lRJB8GXEoVEXRnXH-110" vertex="1">
          <mxGeometry x="10" y="30" width="80" height="30" as="geometry" />
        </mxCell>
        <mxCell id="TOCDHdvm8-HeGQYIKiHr-263" value="&lt;div style=&quot;font-size: 12px;&quot;&gt;&lt;font style=&quot;font-size: 12px; color: rgb(0, 0, 0); direction: ltr; letter-spacing: 0px; line-height: 120%; opacity: 1;&quot;&gt;SP 800-116&lt;br style=&quot;font-size: 12px;&quot;&gt;&lt;/font&gt;&lt;/div&gt;" style="verticalAlign=middle;align=center;overflow=width;vsdxID=63;gradientDirection=north;shape=stencil(nZBLDoAgDERP0z3SIyjew0SURgSD+Lu9kMZoXLhwN9O+tukAlrNpJg1SzDH4QW/URgNYgZTkjA4UkwJUgGXng+6DX1zLfmoymdXo17xh5zmRJ6Q42BWCfc2oJfdAr+Yv+AP9Cb7OJ3H/2JG1HNGz/84klThPVCc=);shadow=0;spacingTop=-1;spacingBottom=-1;spacingLeft=-1;spacingRight=-1;points=[[1,0.5,0],[0.5,0.5,0],[0.5,0,0]];labelBackgroundColor=none;rounded=0;html=1;whiteSpace=wrap;fontSize=12;fontFamily=Helvetica;fillColor=#f5f5f5;fontColor=#333333;strokeColor=#666666;" parent="ggG3lRJB8GXEoVEXRnXH-110" vertex="1">
          <mxGeometry x="200" y="90" width="80" height="30" as="geometry" />
        </mxCell>
        <mxCell id="TOCDHdvm8-HeGQYIKiHr-264" value="&lt;div style=&quot;font-size: 12px;&quot;&gt;&lt;font style=&quot;font-size: 12px; color: rgb(0, 0, 0); direction: ltr; letter-spacing: 0px; line-height: 120%; opacity: 1;&quot;&gt;FIPS 201&lt;br style=&quot;font-size: 12px;&quot;&gt;&lt;/font&gt;&lt;/div&gt;" style="verticalAlign=middle;align=center;overflow=width;vsdxID=64;gradientDirection=north;shape=stencil(nZBLDoAgDERP0z3SIyjew0SURgSD+Lu9kMZoXLhwN9O+tukAlrNpJg1SzDH4QW/URgNYgZTkjA4UkwJUgGXng+6DX1zLfmoymdXo17xh5zmRJ6Q42BWCfc2oJfdAr+Yv+AP9Cb7OJ3H/2JG1HNGz/84klThPVCc=);shadow=0;spacingTop=-1;spacingBottom=-1;spacingLeft=-1;spacingRight=-1;points=[[1,0.5,0],[0.5,0.5,0],[0.5,0,0]];labelBackgroundColor=none;rounded=0;html=1;whiteSpace=wrap;fontSize=12;fontFamily=Helvetica;fillColor=#f5f5f5;fontColor=#333333;strokeColor=#666666;" parent="ggG3lRJB8GXEoVEXRnXH-110" vertex="1">
          <mxGeometry x="200" y="30" width="80" height="60" as="geometry" />
        </mxCell>
        <UserObject label="&lt;div style=&quot;font-size: 12px;&quot;&gt;&lt;font style=&quot;font-size: 12px; color: rgb(0, 0, 0); direction: ltr; letter-spacing: 0px; line-height: 120%; opacity: 1;&quot;&gt;SP 800-157&lt;br style=&quot;font-size: 12px;&quot;&gt;&lt;/font&gt;&lt;/div&gt;" tags="Flowchart" id="TOCDHdvm8-HeGQYIKiHr-165">
          <mxCell style="verticalAlign=middle;align=center;overflow=width;vsdxID=126;gradientDirection=north;shape=stencil(nZBLDoAgDERP0z3SIyjew0SURgSD+Lu9kMZoXLhwN9O+tukAlrNpJg1SzDH4QW/URgNYgZTkjA4UkwJUgGXng+6DX1zLfmoymdXo17xh5zmRJ6Q42BWCfc2oJfdAr+Yv+AP9Cb7OJ3H/2JG1HNGz/84klThPVCc=);shadow=0;spacingTop=-1;spacingBottom=-1;spacingLeft=-1;spacingRight=-1;points=[[1,0.5,0],[0.5,0.5,0],[0.5,0,0]];labelBackgroundColor=none;rounded=0;html=1;whiteSpace=wrap;fontSize=12;fontFamily=Helvetica;fillColor=#f5f5f5;fontColor=#333333;strokeColor=#666666;" parent="ggG3lRJB8GXEoVEXRnXH-110" vertex="1">
            <mxGeometry x="105" y="120" width="80" height="30" as="geometry" />
          </mxCell>
        </UserObject>
        <UserObject label="&lt;div style=&quot;font-size: 12px;&quot;&gt;&lt;font style=&quot;font-size: 12px; color: rgb(0, 0, 0); direction: ltr; letter-spacing: 0px; line-height: 120%; opacity: 1;&quot;&gt;SP 800-63&lt;br style=&quot;font-size: 12px;&quot;&gt;&lt;/font&gt;&lt;/div&gt;" tags="Flowchart" id="ggG3lRJB8GXEoVEXRnXH-161">
          <mxCell style="verticalAlign=middle;align=center;overflow=width;vsdxID=96;gradientDirection=north;shape=stencil(nZBLDoAgDERP0z3SIyjew0SURgSD+Lu9kMZoXLhwN9O+tukAlrNpJg1SzDH4QW/URgNYgZTkjA4UkwJUgGXng+6DX1zLfmoymdXo17xh5zmRJ6Q42BWCfc2oJfdAr+Yv+AP9Cb7OJ3H/2JG1HNGz/84klThPVCc=);shadow=0;spacingTop=-1;spacingBottom=-1;spacingLeft=-1;spacingRight=-1;points=[[1,0.5,0],[0.5,0.5,0],[0.5,0,0]];labelBackgroundColor=none;rounded=0;html=1;whiteSpace=wrap;fontSize=12;fontFamily=Helvetica;fillColor=#f5f5f5;fontColor=#333333;strokeColor=#666666;" parent="ggG3lRJB8GXEoVEXRnXH-139" vertex="1">
            <mxGeometry x="239.2" y="60" width="70" height="30" as="geometry" />
          </mxCell>
        </UserObject>
        <UserObject label="&lt;div style=&quot;font-size: 12px;&quot;&gt;&lt;font style=&quot;font-size: 12px; color: rgb(0, 0, 0); direction: ltr; letter-spacing: 0px; line-height: 120%; opacity: 1;&quot;&gt;Identity and Access Management Roadmap&lt;br style=&quot;font-size: 12px;&quot;&gt;&lt;/font&gt;&lt;/div&gt;" tags="Flowchart" id="TOCDHdvm8-HeGQYIKiHr-163">
          <mxCell style="verticalAlign=middle;align=center;overflow=width;vsdxID=96;gradientDirection=north;shape=stencil(nZBLDoAgDERP0z3SIyjew0SURgSD+Lu9kMZoXLhwN9O+tukAlrNpJg1SzDH4QW/URgNYgZTkjA4UkwJUgGXng+6DX1zLfmoymdXo17xh5zmRJ6Q42BWCfc2oJfdAr+Yv+AP9Cb7OJ3H/2JG1HNGz/84klThPVCc=);shadow=0;spacingTop=-1;spacingBottom=-1;spacingLeft=-1;spacingRight=-1;points=[[1,0.5,0],[0.5,0.5,0],[0.5,0,0]];labelBackgroundColor=none;rounded=0;html=1;whiteSpace=wrap;fontSize=12;fontFamily=Helvetica;fillColor=#f5f5f5;fontColor=#333333;strokeColor=#666666;" parent="ggG3lRJB8GXEoVEXRnXH-139" vertex="1">
            <mxGeometry x="10" y="60" width="120" height="60" as="geometry" />
          </mxCell>
        </UserObject>
        <mxCell id="ggG3lRJB8GXEoVEXRnXH-164" style="rounded=0;orthogonalLoop=1;jettySize=auto;html=1;fontSize=12;startSize=8;endSize=8;fontFamily=Helvetica;entryX=0.203;entryY=-0.023;entryDx=0;entryDy=0;entryPerimeter=0;fillColor=#f5f5f5;strokeColor=#666666;" parent="ggG3lRJB8GXEoVEXRnXH-139" source="TOCDHdvm8-HeGQYIKiHr-163" target="ggG3lRJB8GXEoVEXRnXH-110" edge="1">
          <mxGeometry relative="1" as="geometry">
            <mxPoint x="300" y="90" as="targetPoint" />
          </mxGeometry>
        </mxCell>
        <mxCell id="ggG3lRJB8GXEoVEXRnXH-143" style="edgeStyle=elbowEdgeStyle;rounded=0;orthogonalLoop=1;jettySize=auto;html=1;fontSize=12;startSize=8;endSize=8;fontFamily=Helvetica;" parent="TOCDHdvm8-HeGQYIKiHr-162" source="TOCDHdvm8-HeGQYIKiHr-290" target="ggG3lRJB8GXEoVEXRnXH-119" edge="1">
          <mxGeometry relative="1" as="geometry">
            <Array as="points">
              <mxPoint x="-640" y="325" />
            </Array>
          </mxGeometry>
        </mxCell>
        <mxCell id="ggG3lRJB8GXEoVEXRnXH-146" style="edgeStyle=elbowEdgeStyle;rounded=0;orthogonalLoop=1;jettySize=auto;html=1;fontSize=12;startSize=8;endSize=8;fontFamily=Helvetica;" parent="TOCDHdvm8-HeGQYIKiHr-162" source="ggG3lRJB8GXEoVEXRnXH-138" target="TOCDHdvm8-HeGQYIKiHr-183" edge="1">
          <mxGeometry relative="1" as="geometry" />
        </mxCell>
        <mxCell id="ggG3lRJB8GXEoVEXRnXH-159" style="edgeStyle=orthogonalEdgeStyle;rounded=0;orthogonalLoop=1;jettySize=auto;html=1;fontSize=12;startSize=8;endSize=8;fontFamily=Helvetica;" parent="TOCDHdvm8-HeGQYIKiHr-162" source="ggG3lRJB8GXEoVEXRnXH-149" target="ggG3lRJB8GXEoVEXRnXH-135" edge="1">
          <mxGeometry relative="1" as="geometry" />
        </mxCell>
        <mxCell id="ggG3lRJB8GXEoVEXRnXH-148" value="Federal PKI Policies" style="swimlane;fontSize=12;fontFamily=Helvetica;" parent="TOCDHdvm8-HeGQYIKiHr-162" vertex="1">
          <mxGeometry x="-630.71" y="-122" width="120" height="180" as="geometry" />
        </mxCell>
        <mxCell id="ggG3lRJB8GXEoVEXRnXH-149" value="Federal Common Policy" style="rounded=0;whiteSpace=wrap;html=1;fontSize=12;fontFamily=Helvetica;fillColor=#f5f5f5;fontColor=#333333;strokeColor=#666666;" parent="ggG3lRJB8GXEoVEXRnXH-148" vertex="1">
          <mxGeometry x="10" y="110" width="100" height="50" as="geometry" />
        </mxCell>
        <mxCell id="ggG3lRJB8GXEoVEXRnXH-150" value="Federal Bridge Certificate Policy" style="rounded=0;whiteSpace=wrap;html=1;fontSize=12;fontFamily=Helvetica;fillColor=#f5f5f5;fontColor=#333333;strokeColor=#666666;" parent="ggG3lRJB8GXEoVEXRnXH-148" vertex="1">
          <mxGeometry x="10" y="40" width="100" height="50" as="geometry" />
        </mxCell>
        <mxCell id="ggG3lRJB8GXEoVEXRnXH-152" style="edgeStyle=elbowEdgeStyle;rounded=0;orthogonalLoop=1;jettySize=auto;html=1;fontSize=12;startSize=8;endSize=8;fontFamily=Helvetica;" parent="TOCDHdvm8-HeGQYIKiHr-162" source="TOCDHdvm8-HeGQYIKiHr-288" target="ggG3lRJB8GXEoVEXRnXH-148" edge="1">
          <mxGeometry relative="1" as="geometry">
            <Array as="points">
              <mxPoint x="-650" y="-80" />
            </Array>
          </mxGeometry>
        </mxCell>
        <mxCell id="ggG3lRJB8GXEoVEXRnXH-155" value="Office of Management and Budget" style="swimlane;horizontal=0;whiteSpace=wrap;html=1;fontSize=12;startSize=40;fontFamily=Helvetica;" parent="TOCDHdvm8-HeGQYIKiHr-162" vertex="1">
          <mxGeometry x="-840" y="-430" width="170" height="291" as="geometry" />
        </mxCell>
        <mxCell id="ggG3lRJB8GXEoVEXRnXH-156" value="Federal CIO Council" style="rounded=0;whiteSpace=wrap;html=1;fontSize=12;fontFamily=Helvetica;fillColor=#e1d5e7;strokeColor=#9673a6;" parent="ggG3lRJB8GXEoVEXRnXH-155" vertex="1">
          <mxGeometry x="48.73" y="30.19" width="101.27" height="39.81" as="geometry" />
        </mxCell>
        <mxCell id="BOQAK6o0q5huGk6jUpcG-93" value="" style="edgeStyle=orthogonalEdgeStyle;rounded=0;orthogonalLoop=1;jettySize=auto;html=1;fontSize=12;startSize=8;endSize=8;fontFamily=Helvetica;entryX=0.5;entryY=0;entryDx=0;entryDy=0;entryPerimeter=0;" parent="TOCDHdvm8-HeGQYIKiHr-162" source="TOCDHdvm8-HeGQYIKiHr-280" target="TOCDHdvm8-HeGQYIKiHr-163" edge="1">
          <mxGeometry relative="1" as="geometry">
            <Array as="points">
              <mxPoint x="-70" y="-760" />
              <mxPoint x="-580" y="-760" />
            </Array>
            <mxPoint x="-240.00000000000006" y="-1035" as="sourcePoint" />
            <mxPoint x="-250.00000000000006" y="-800" as="targetPoint" />
          </mxGeometry>
        </mxCell>
        <mxCell id="OKbE2jHSaiZm_oSIyEsE-94" style="edgeStyle=orthogonalEdgeStyle;rounded=0;orthogonalLoop=1;jettySize=auto;html=1;fontSize=12;fontFamily=Helvetica;" parent="TOCDHdvm8-HeGQYIKiHr-162" source="OKbE2jHSaiZm_oSIyEsE-92" target="TOCDHdvm8-HeGQYIKiHr-186" edge="1">
          <mxGeometry relative="1" as="geometry" />
        </mxCell>
        <mxCell id="Nrz4EeOHtD00HPhqAW5B-155" style="edgeStyle=orthogonalEdgeStyle;rounded=0;orthogonalLoop=1;jettySize=auto;html=1;entryX=1;entryY=0.5;entryDx=0;entryDy=0;entryPerimeter=0;" edge="1" parent="TOCDHdvm8-HeGQYIKiHr-162" source="OKbE2jHSaiZm_oSIyEsE-92" target="Nrz4EeOHtD00HPhqAW5B-152">
          <mxGeometry relative="1" as="geometry" />
        </mxCell>
        <UserObject label="&lt;div style=&quot;font-size: 12px;&quot;&gt;&lt;font style=&quot;font-size: 12px; color: rgb(0, 0, 0); direction: ltr; letter-spacing: 0px; line-height: 120%; opacity: 1;&quot;&gt;FISMA 2002&lt;br style=&quot;font-size: 12px;&quot;&gt;&lt;/font&gt;&lt;/div&gt;" tags="Flowchart" id="OKbE2jHSaiZm_oSIyEsE-92">
          <mxCell style="verticalAlign=middle;align=center;overflow=width;vsdxID=94;gradientDirection=north;shape=stencil(nZBLDoAgDERP0z3SIyjew0SURgSD+Lu9kMZoXLhwN9O+tukAlrNpJg1SzDH4QW/URgNYgZTkjA4UkwJUgGXng+6DX1zLfmoymdXo17xh5zmRJ6Q42BWCfc2oJfdAr+Yv+AP9Cb7OJ3H/2JG1HNGz/84klThPVCc=);shadow=0;spacingTop=-1;spacingBottom=-1;spacingLeft=-1;spacingRight=-1;points=[[1,0.5,0],[0.5,0.5,0],[0.5,0,0]];labelBackgroundColor=none;rounded=0;html=1;whiteSpace=wrap;fontSize=12;fontFamily=Helvetica;fillColor=#d5e8d4;strokeColor=#82b366;" parent="TOCDHdvm8-HeGQYIKiHr-162" vertex="1">
            <mxGeometry x="-223.81000000000006" y="-690" width="100" height="30" as="geometry" />
          </mxCell>
        </UserObject>
        <mxCell id="M2wGCtZiavQWHun2glgx-100" style="edgeStyle=none;curved=1;rounded=0;orthogonalLoop=1;jettySize=auto;html=1;fontSize=12;startSize=8;endSize=8;fontFamily=Helvetica;" parent="TOCDHdvm8-HeGQYIKiHr-162" source="M2wGCtZiavQWHun2glgx-94" target="TOCDHdvm8-HeGQYIKiHr-284" edge="1">
          <mxGeometry relative="1" as="geometry" />
        </mxCell>
        <mxCell id="M2wGCtZiavQWHun2glgx-94" value="Federal CISO Council" style="rounded=0;whiteSpace=wrap;html=1;fontSize=12;fontFamily=Helvetica;fillColor=#e1d5e7;strokeColor=#9673a6;" parent="TOCDHdvm8-HeGQYIKiHr-162" vertex="1">
          <mxGeometry x="-790" y="-329" width="100" height="40" as="geometry" />
        </mxCell>
        <UserObject label="&lt;div style=&quot;font-size: 12px;&quot;&gt;&lt;font style=&quot;font-size: 12px; color: rgb(0, 0, 0); direction: ltr; letter-spacing: 0px; line-height: 120%; opacity: 1;&quot;&gt;Identity, Credential and Access Management Subcommittee (ICAMSC)&lt;br style=&quot;font-size: 12px;&quot;&gt;&lt;/font&gt;&lt;/div&gt;" tags="Flowchart" id="TOCDHdvm8-HeGQYIKiHr-284">
          <mxCell style="verticalAlign=middle;align=center;overflow=width;vsdxID=72;gradientDirection=north;shape=stencil(nZBLDoAgDERP0z3SIyjew0SURgSD+Lu9kMZoXLhwN9O+tukAlrNpJg1SzDH4QW/URgNYgZTkjA4UkwJUgGXng+6DX1zLfmoymdXo17xh5zmRJ6Q42BWCfc2oJfdAr+Yv+AP9Cb7OJ3H/2JG1HNGz/84klThPVCc=);shadow=0;spacingTop=-1;spacingBottom=-1;spacingLeft=-1;spacingRight=-1;points=[[1,0.5,0],[0.5,0.5,0],[0.5,0,0]];labelBackgroundColor=none;rounded=0;html=1;whiteSpace=wrap;fontFamily=Helvetica;fontSize=12;fillColor=#e1d5e7;strokeColor=#9673a6;" parent="TOCDHdvm8-HeGQYIKiHr-162" vertex="1">
            <mxGeometry x="-790" y="-237" width="100" height="90" as="geometry" />
          </mxCell>
        </UserObject>
        <mxCell id="ggG3lRJB8GXEoVEXRnXH-147" style="rounded=0;orthogonalLoop=1;jettySize=auto;html=1;fontSize=12;startSize=8;endSize=8;fontFamily=Helvetica;" parent="TOCDHdvm8-HeGQYIKiHr-162" source="TOCDHdvm8-HeGQYIKiHr-284" edge="1">
          <mxGeometry relative="1" as="geometry">
            <mxPoint x="-650" y="-194" as="targetPoint" />
          </mxGeometry>
        </mxCell>
        <mxCell id="M2wGCtZiavQWHun2glgx-99" value="" style="edgeStyle=none;curved=1;rounded=0;orthogonalLoop=1;jettySize=auto;html=1;fontSize=12;startSize=8;endSize=8;fontFamily=Helvetica;" parent="TOCDHdvm8-HeGQYIKiHr-162" source="ggG3lRJB8GXEoVEXRnXH-156" target="M2wGCtZiavQWHun2glgx-94" edge="1">
          <mxGeometry relative="1" as="geometry" />
        </mxCell>
        <mxCell id="Nrz4EeOHtD00HPhqAW5B-99" style="edgeStyle=orthogonalEdgeStyle;rounded=0;orthogonalLoop=1;jettySize=auto;html=1;fontSize=12;fontFamily=Helvetica;" edge="1" parent="TOCDHdvm8-HeGQYIKiHr-162" source="Nrz4EeOHtD00HPhqAW5B-128" target="Nrz4EeOHtD00HPhqAW5B-97">
          <mxGeometry relative="1" as="geometry" />
        </mxCell>
        <UserObject label="&lt;div style=&quot;font-size: 12px;&quot;&gt;&lt;font style=&quot;font-size: 12px; color: rgb(0, 0, 0); direction: ltr; letter-spacing: 0px; line-height: 120%; opacity: 1;&quot;&gt;M-16-19&lt;br style=&quot;font-size: 12px;&quot;&gt;&lt;/font&gt;&lt;/div&gt;" link="https://www.whitehouse.gov/wp-content/uploads/legacy_drupal_files/omb/memoranda/2016/m_16_19_1.pdf" id="Nrz4EeOHtD00HPhqAW5B-94">
          <mxCell style="verticalAlign=middle;align=center;overflow=width;vsdxID=142;gradientDirection=north;shape=stencil(nZBLDoAgDERP0z3SIyjew0SURgSD+Lu9kMZoXLhwN9O+tukAlrNpJg1SzDH4QW/URgNYgZTkjA4UkwJUgGXng+6DX1zLfmoymdXo17xh5zmRJ6Q42BWCfc2oJfdAr+Yv+AP9Cb7OJ3H/2JG1HNGz/84klThPVCc=);shadow=0;spacingTop=-1;spacingBottom=-1;spacingLeft=-1;spacingRight=-1;points=[[1,0.5,0],[0.5,0.5,0],[0.5,0,0]];labelBackgroundColor=none;rounded=0;html=1;whiteSpace=wrap;fontSize=12;fontFamily=Helvetica;fillColor=#dae8fc;strokeColor=#6c8ebf;" vertex="1" parent="TOCDHdvm8-HeGQYIKiHr-162">
            <mxGeometry x="-223.18000000000012" y="80" width="60" height="30" as="geometry" />
          </mxCell>
        </UserObject>
        <mxCell id="Nrz4EeOHtD00HPhqAW5B-98" value="" style="edgeStyle=orthogonalEdgeStyle;rounded=0;orthogonalLoop=1;jettySize=auto;html=1;fontSize=12;fontFamily=Helvetica;" edge="1" parent="TOCDHdvm8-HeGQYIKiHr-162" source="Nrz4EeOHtD00HPhqAW5B-96" target="Nrz4EeOHtD00HPhqAW5B-97">
          <mxGeometry relative="1" as="geometry" />
        </mxCell>
        <mxCell id="Nrz4EeOHtD00HPhqAW5B-97" value="PKI In the Cloud Tiger Team" style="whiteSpace=wrap;html=1;gradientDirection=north;spacingTop=-1;spacingBottom=-1;spacingLeft=-1;spacingRight=-1;labelBackgroundColor=none;rounded=0;shadow=0;fontSize=12;fontFamily=Helvetica;fillColor=#fff2cc;strokeColor=#d6b656;" vertex="1" parent="TOCDHdvm8-HeGQYIKiHr-162">
          <mxGeometry x="-624" y="65" width="107" height="60" as="geometry" />
        </mxCell>
        <mxCell id="Nrz4EeOHtD00HPhqAW5B-100" value="NSA" style="swimlane;horizontal=0;whiteSpace=wrap;html=1;fontSize=12;fontFamily=Helvetica;" vertex="1" parent="TOCDHdvm8-HeGQYIKiHr-162">
          <mxGeometry x="-840" y="490" width="160" height="80" as="geometry" />
        </mxCell>
        <mxCell id="TOCDHdvm8-HeGQYIKiHr-168" value="&lt;div style=&quot;font-size: 12px;&quot;&gt;&lt;font style=&quot;font-size: 12px; color: rgb(0, 0, 0); direction: ltr; letter-spacing: 0px; line-height: 120%; opacity: 1;&quot;&gt;Committee on National Security Systems &lt;br style=&quot;font-size: 12px;&quot;&gt;(CNSS)&lt;br style=&quot;font-size: 12px;&quot;&gt;&lt;/font&gt;&lt;/div&gt;" style="verticalAlign=middle;align=center;overflow=width;vsdxID=147;gradientDirection=north;shape=stencil(nZBLDoAgDERP0z3SIyjew0SURgSD+Lu9kMZoXLhwN9O+tukAlrNpJg1SzDH4QW/URgNYgZTkjA4UkwJUgGXng+6DX1zLfmoymdXo17xh5zmRJ6Q42BWCfc2oJfdAr+Yv+AP9Cb7OJ3H/2JG1HNGz/84klThPVCc=);shadow=0;spacingTop=-1;spacingBottom=-1;spacingLeft=-1;spacingRight=-1;points=[[1,0.5,0],[0.5,0.5,0],[0.5,0,0]];labelBackgroundColor=none;rounded=0;html=1;whiteSpace=wrap;fontSize=12;fontFamily=Helvetica;fillColor=#e1d5e7;strokeColor=#9673a6;" parent="Nrz4EeOHtD00HPhqAW5B-100" vertex="1">
          <mxGeometry x="37.73" y="10" width="100" height="60" as="geometry" />
        </mxCell>
        <mxCell id="Nrz4EeOHtD00HPhqAW5B-123" style="edgeStyle=orthogonalEdgeStyle;rounded=0;orthogonalLoop=1;jettySize=auto;html=1;" edge="1" parent="TOCDHdvm8-HeGQYIKiHr-162" source="Nrz4EeOHtD00HPhqAW5B-121" target="TOCDHdvm8-HeGQYIKiHr-286">
          <mxGeometry relative="1" as="geometry" />
        </mxCell>
        <UserObject label="&lt;div style=&quot;font-size: 12px;&quot;&gt;&lt;font style=&quot;font-size: 12px; color: rgb(0, 0, 0); direction: ltr; letter-spacing: 0px; line-height: 120%; opacity: 1;&quot;&gt;M-19-16&lt;br style=&quot;font-size: 12px;&quot;&gt;&lt;/font&gt;&lt;/div&gt;" id="Nrz4EeOHtD00HPhqAW5B-121">
          <mxCell style="verticalAlign=middle;align=center;overflow=width;vsdxID=142;gradientDirection=north;shape=stencil(nZBLDoAgDERP0z3SIyjew0SURgSD+Lu9kMZoXLhwN9O+tukAlrNpJg1SzDH4QW/URgNYgZTkjA4UkwJUgGXng+6DX1zLfmoymdXo17xh5zmRJ6Q42BWCfc2oJfdAr+Yv+AP9Cb7OJ3H/2JG1HNGz/84klThPVCc=);shadow=0;spacingTop=-1;spacingBottom=-1;spacingLeft=-1;spacingRight=-1;points=[[1,0.5,0],[0.5,0.5,0],[0.5,0,0]];labelBackgroundColor=none;rounded=0;html=1;whiteSpace=wrap;fontSize=12;fontFamily=Helvetica;fillColor=#dae8fc;strokeColor=#6c8ebf;" vertex="1" parent="TOCDHdvm8-HeGQYIKiHr-162">
            <mxGeometry x="-225.31000000000012" y="241.25" width="60" height="30" as="geometry" />
          </mxCell>
        </UserObject>
        <mxCell id="Nrz4EeOHtD00HPhqAW5B-126" style="edgeStyle=orthogonalEdgeStyle;rounded=0;orthogonalLoop=1;jettySize=auto;html=1;" edge="1" parent="TOCDHdvm8-HeGQYIKiHr-162" source="Nrz4EeOHtD00HPhqAW5B-125" target="TOCDHdvm8-HeGQYIKiHr-216">
          <mxGeometry relative="1" as="geometry" />
        </mxCell>
        <UserObject label="&lt;div style=&quot;font-size: 12px;&quot;&gt;&lt;font style=&quot;font-size: 12px; color: rgb(0, 0, 0); direction: ltr; letter-spacing: 0px; line-height: 120%; opacity: 1;&quot;&gt;M-16-11&lt;br style=&quot;font-size: 12px;&quot;&gt;&lt;/font&gt;&lt;/div&gt;" tags="Flowchart" id="Nrz4EeOHtD00HPhqAW5B-125">
          <mxCell style="verticalAlign=middle;align=center;overflow=width;vsdxID=101;gradientDirection=north;shape=stencil(nZBLDoAgDERP0z3SIyjew0SURgSD+Lu9kMZoXLhwN9O+tukAlrNpJg1SzDH4QW/URgNYgZTkjA4UkwJUgGXng+6DX1zLfmoymdXo17xh5zmRJ6Q42BWCfc2oJfdAr+Yv+AP9Cb7OJ3H/2JG1HNGz/84klThPVCc=);shadow=0;spacingTop=-1;spacingBottom=-1;spacingLeft=-1;spacingRight=-1;points=[[1,0.5,0],[0.5,0.5,0],[0.5,0,0]];labelBackgroundColor=none;rounded=0;html=1;whiteSpace=wrap;fontSize=12;fontFamily=Helvetica;fillColor=#dae8fc;strokeColor=#6c8ebf;" vertex="1" parent="TOCDHdvm8-HeGQYIKiHr-162">
            <mxGeometry x="-223.81000000000012" y="340" width="60" height="30" as="geometry" />
          </mxCell>
        </UserObject>
        <UserObject label="&lt;div style=&quot;font-size: 12px;&quot;&gt;&lt;font style=&quot;font-size: 12px; color: rgb(0, 0, 0); direction: ltr; letter-spacing: 0px; line-height: 120%; opacity: 1;&quot;&gt;Federal Cloud Computing Strategy&lt;br style=&quot;font-size: 12px;&quot;&gt;&lt;/font&gt;&lt;/div&gt;" tags="Flowchart" id="Nrz4EeOHtD00HPhqAW5B-127">
          <mxCell style="verticalAlign=middle;align=center;overflow=width;vsdxID=2;gradientDirection=north;shape=stencil(nZBLDoAgDERP0z3SIyjew0SURgSD+Lu9kMZoXLhwN9O+tukAlrNpJg1SzDH4QW/URgNYgZTkjA4UkwJUgGXng+6DX1zLfmoymdXo17xh5zmRJ6Q42BWCfc2oJfdAr+Yv+AP9Cb7OJ3H/2JG1HNGz/84klThPVCc=);shadow=0;spacingTop=-1;spacingBottom=-1;spacingLeft=-1;spacingRight=-1;points=[[1,0.5,0],[0.5,0.5,0],[0.5,0,0]];labelBackgroundColor=none;rounded=0;html=1;whiteSpace=wrap;fontSize=12;fontFamily=Helvetica;fillColor=#dae8fc;strokeColor=#6c8ebf;" vertex="1" parent="TOCDHdvm8-HeGQYIKiHr-162">
            <mxGeometry x="-304.96999999999997" y="-490" width="90" height="50" as="geometry" />
          </mxCell>
        </UserObject>
        <mxCell id="Nrz4EeOHtD00HPhqAW5B-130" value="" style="edgeStyle=orthogonalEdgeStyle;rounded=0;orthogonalLoop=1;jettySize=auto;html=1;fontSize=12;fontFamily=Helvetica;" edge="1" parent="TOCDHdvm8-HeGQYIKiHr-162" source="Nrz4EeOHtD00HPhqAW5B-94" target="Nrz4EeOHtD00HPhqAW5B-128">
          <mxGeometry relative="1" as="geometry">
            <mxPoint x="-203.18000000000012" y="95" as="sourcePoint" />
            <mxPoint x="-523.1800000000001" y="95" as="targetPoint" />
          </mxGeometry>
        </mxCell>
        <UserObject label="&lt;div style=&quot;font-size: 12px;&quot;&gt;&lt;font style=&quot;font-size: 12px; color: rgb(0, 0, 0); direction: ltr; letter-spacing: 0px; line-height: 120%; opacity: 1;&quot;&gt;M-19-19&lt;br style=&quot;font-size: 12px;&quot;&gt;&lt;/font&gt;&lt;/div&gt;" id="Nrz4EeOHtD00HPhqAW5B-128">
          <mxCell style="verticalAlign=middle;align=center;overflow=width;vsdxID=142;gradientDirection=north;shape=stencil(nZBLDoAgDERP0z3SIyjew0SURgSD+Lu9kMZoXLhwN9O+tukAlrNpJg1SzDH4QW/URgNYgZTkjA4UkwJUgGXng+6DX1zLfmoymdXo17xh5zmRJ6Q42BWCfc2oJfdAr+Yv+AP9Cb7OJ3H/2JG1HNGz/84klThPVCc=);shadow=0;spacingTop=-1;spacingBottom=-1;spacingLeft=-1;spacingRight=-1;points=[[1,0.5,0],[0.5,0.5,0],[0.5,0,0]];labelBackgroundColor=none;rounded=0;html=1;whiteSpace=wrap;fontSize=12;fontFamily=Helvetica;fillColor=#dae8fc;strokeColor=#6c8ebf;" vertex="1" parent="TOCDHdvm8-HeGQYIKiHr-162">
            <mxGeometry x="-319.74" y="80" width="60" height="30" as="geometry" />
          </mxCell>
        </UserObject>
        <mxCell id="Nrz4EeOHtD00HPhqAW5B-142" value="Agency/Department" style="rounded=0;whiteSpace=wrap;html=1;fillColor=#e1d5e7;strokeColor=#9673a6;" vertex="1" parent="TOCDHdvm8-HeGQYIKiHr-162">
          <mxGeometry x="-840" y="-1090" width="120" height="30" as="geometry" />
        </mxCell>
        <mxCell id="Nrz4EeOHtD00HPhqAW5B-143" value="Law/Executive Order" style="rounded=0;whiteSpace=wrap;html=1;fillColor=#d5e8d4;strokeColor=#82b366;" vertex="1" parent="TOCDHdvm8-HeGQYIKiHr-162">
          <mxGeometry x="-699.1" y="-1090" width="120" height="30" as="geometry" />
        </mxCell>
        <mxCell id="Nrz4EeOHtD00HPhqAW5B-144" value="Memorandum" style="rounded=0;whiteSpace=wrap;html=1;fillColor=#dae8fc;strokeColor=#6c8ebf;" vertex="1" parent="TOCDHdvm8-HeGQYIKiHr-162">
          <mxGeometry x="-558.1" y="-1090" width="98" height="30" as="geometry" />
        </mxCell>
        <mxCell id="Nrz4EeOHtD00HPhqAW5B-145" value="Technical Guidance" style="rounded=0;whiteSpace=wrap;html=1;fillColor=#f5f5f5;fontColor=#333333;strokeColor=#666666;" vertex="1" parent="TOCDHdvm8-HeGQYIKiHr-162">
          <mxGeometry x="-437.32000000000005" y="-1090" width="120" height="30" as="geometry" />
        </mxCell>
        <mxCell id="Nrz4EeOHtD00HPhqAW5B-146" value="Program" style="rounded=0;whiteSpace=wrap;html=1;fillColor=#ffe6cc;strokeColor=#d79b00;" vertex="1" parent="TOCDHdvm8-HeGQYIKiHr-162">
          <mxGeometry x="-299.84000000000003" y="-1090" width="79.74" height="30" as="geometry" />
        </mxCell>
        <mxCell id="Nrz4EeOHtD00HPhqAW5B-147" value="Work Team" style="rounded=0;whiteSpace=wrap;html=1;fillColor=#fff2cc;strokeColor=#d6b656;" vertex="1" parent="TOCDHdvm8-HeGQYIKiHr-162">
          <mxGeometry x="-197.79" y="-1090" width="78.6" height="30" as="geometry" />
        </mxCell>
        <mxCell id="Nrz4EeOHtD00HPhqAW5B-150" style="edgeStyle=orthogonalEdgeStyle;rounded=0;orthogonalLoop=1;jettySize=auto;html=1;" edge="1" parent="TOCDHdvm8-HeGQYIKiHr-162" source="TOCDHdvm8-HeGQYIKiHr-165" target="TOCDHdvm8-HeGQYIKiHr-280">
          <mxGeometry relative="1" as="geometry">
            <Array as="points">
              <mxPoint x="-100" y="-525" />
              <mxPoint x="-100" y="-314" />
            </Array>
          </mxGeometry>
        </mxCell>
        <mxCell id="Nrz4EeOHtD00HPhqAW5B-151" style="edgeStyle=orthogonalEdgeStyle;rounded=0;orthogonalLoop=1;jettySize=auto;html=1;entryX=0.337;entryY=0;entryDx=0;entryDy=0;entryPerimeter=0;" edge="1" parent="TOCDHdvm8-HeGQYIKiHr-162" source="ggG3lRJB8GXEoVEXRnXH-161" target="TOCDHdvm8-HeGQYIKiHr-280">
          <mxGeometry relative="1" as="geometry">
            <Array as="points">
              <mxPoint x="-100" y="-725" />
              <mxPoint x="-100" y="-329" />
            </Array>
          </mxGeometry>
        </mxCell>
        <mxCell id="Nrz4EeOHtD00HPhqAW5B-153" style="edgeStyle=orthogonalEdgeStyle;rounded=0;orthogonalLoop=1;jettySize=auto;html=1;entryX=0.476;entryY=0.967;entryDx=0;entryDy=0;entryPerimeter=0;" edge="1" parent="TOCDHdvm8-HeGQYIKiHr-162" source="Nrz4EeOHtD00HPhqAW5B-152" target="ggG3lRJB8GXEoVEXRnXH-161">
          <mxGeometry relative="1" as="geometry" />
        </mxCell>
        <UserObject label="&lt;div style=&quot;font-size: 12px;&quot;&gt;&lt;font style=&quot;font-size: 12px; color: rgb(0, 0, 0); direction: ltr; letter-spacing: 0px; line-height: 120%; opacity: 1;&quot;&gt;M-04-04&lt;br style=&quot;font-size: 12px;&quot;&gt;&lt;/font&gt;&lt;/div&gt;" tags="Flowchart" id="Nrz4EeOHtD00HPhqAW5B-152">
          <mxCell style="verticalAlign=middle;align=center;overflow=width;vsdxID=12;gradientDirection=north;shape=stencil(nZBLDoAgDERP0z3SIyjew0SURgSD+Lu9kMZoXLhwN9O+tukAlrNpJg1SzDH4QW/URgNYgZTkjA4UkwJUgGXng+6DX1zLfmoymdXo17xh5zmRJ6Q42BWCfc2oJfdAr+Yv+AP9Cb7OJ3H/2JG1HNGz/84klThPVCc=);shadow=0;spacingTop=-1;spacingBottom=-1;spacingLeft=-1;spacingRight=-1;points=[[1,0.5,0],[0.5,0.5,0],[0.5,0,0]];labelBackgroundColor=none;rounded=0;html=1;whiteSpace=wrap;fontSize=12;fontFamily=Helvetica;fillColor=#dae8fc;strokeColor=#6c8ebf;" vertex="1" parent="TOCDHdvm8-HeGQYIKiHr-162">
            <mxGeometry x="-313.3200000000001" y="-690" width="60" height="30" as="geometry" />
          </mxCell>
        </UserObject>
        <mxCell id="Nrz4EeOHtD00HPhqAW5B-158" style="edgeStyle=orthogonalEdgeStyle;rounded=0;orthogonalLoop=1;jettySize=auto;html=1;" edge="1" parent="TOCDHdvm8-HeGQYIKiHr-162" source="Nrz4EeOHtD00HPhqAW5B-156">
          <mxGeometry relative="1" as="geometry">
            <mxPoint x="-331" y="10" as="targetPoint" />
            <Array as="points">
              <mxPoint x="-291" y="-55" />
              <mxPoint x="-291" y="10" />
              <mxPoint x="-331" y="10" />
            </Array>
          </mxGeometry>
        </mxCell>
        <UserObject label="&lt;div style=&quot;font-size: 12px;&quot;&gt;&lt;font style=&quot;font-size: 12px; color: rgb(0, 0, 0); direction: ltr; letter-spacing: 0px; line-height: 120%; opacity: 1;&quot;&gt;M-05-05&lt;br style=&quot;font-size: 12px;&quot;&gt;&lt;/font&gt;&lt;/div&gt;" tags="Flowchart" id="Nrz4EeOHtD00HPhqAW5B-156">
          <mxCell style="verticalAlign=middle;align=center;overflow=width;vsdxID=12;gradientDirection=north;shape=stencil(nZBLDoAgDERP0z3SIyjew0SURgSD+Lu9kMZoXLhwN9O+tukAlrNpJg1SzDH4QW/URgNYgZTkjA4UkwJUgGXng+6DX1zLfmoymdXo17xh5zmRJ6Q42BWCfc2oJfdAr+Yv+AP9Cb7OJ3H/2JG1HNGz/84klThPVCc=);shadow=0;spacingTop=-1;spacingBottom=-1;spacingLeft=-1;spacingRight=-1;points=[[1,0.5,0],[0.5,0.5,0],[0.5,0,0]];labelBackgroundColor=none;rounded=0;html=1;whiteSpace=wrap;fontSize=12;fontFamily=Helvetica;fillColor=#dae8fc;strokeColor=#6c8ebf;" vertex="1" parent="TOCDHdvm8-HeGQYIKiHr-162">
            <mxGeometry x="-250.8" y="-70" width="60" height="30" as="geometry" />
          </mxCell>
        </UserObject>
      </root>
    </mxGraphModel>
  </diagram>
</mxfile>
